<svg id="Layer_1" data-name="Layer 1" xmlns="http://www.w3.org/2000/svg" xmlns:xlink="http://www.w3.org/1999/xlink" viewBox="0 0 477.02 357.77"><defs><style>.cls-1{fill:#fffadc;}.cls-2{fill:url(#linear-gradient);}.cls-3{fill:url(#linear-gradient-2);}.cls-4{fill:url(#linear-gradient-3);}.cls-5{fill:url(#linear-gradient-4);}.cls-6{fill:url(#linear-gradient-5);}.cls-7{fill:url(#linear-gradient-6);}.cls-8{fill:url(#linear-gradient-7);}.cls-9{fill:url(#linear-gradient-8);}.cls-10{fill:url(#linear-gradient-9);}.cls-11{fill:url(#linear-gradient-10);}.cls-12{fill:url(#linear-gradient-11);}.cls-13{fill:url(#linear-gradient-12);}.cls-14{fill:url(#linear-gradient-13);}.cls-15{fill:url(#linear-gradient-14);}.cls-16{fill:url(#linear-gradient-15);}.cls-17{fill:url(#linear-gradient-16);}.cls-18{fill:url(#linear-gradient-17);}.cls-19{fill:url(#linear-gradient-18);}.cls-20{fill:url(#linear-gradient-19);}.cls-21{fill:url(#linear-gradient-20);}.cls-22{fill:url(#linear-gradient-21);}.cls-23{fill:#979e93;}.cls-24{fill:url(#linear-gradient-22);}.cls-25{fill:url(#linear-gradient-23);}.cls-26{fill:#737366;}.cls-27{fill:#c9c9c4;}.cls-28{fill:url(#linear-gradient-24);}.cls-29{fill:url(#linear-gradient-25);}.cls-30{fill:url(#linear-gradient-26);}.cls-31{fill:url(#linear-gradient-27);}.cls-32{fill:url(#linear-gradient-28);}.cls-33{fill:url(#linear-gradient-29);}.cls-34{fill:url(#linear-gradient-30);}.cls-35{fill:url(#linear-gradient-31);}.cls-36{fill:url(#linear-gradient-32);}.cls-37{fill:url(#linear-gradient-33);}.cls-38{fill:url(#linear-gradient-34);}.cls-39{fill:url(#linear-gradient-35);}.cls-40{fill:url(#linear-gradient-36);}.cls-41{fill:url(#linear-gradient-37);}.cls-42{fill:url(#linear-gradient-38);}.cls-43{fill:url(#linear-gradient-39);}.cls-44{fill:url(#linear-gradient-40);}.cls-45{fill:url(#linear-gradient-41);}.cls-46{fill:url(#linear-gradient-42);}.cls-47{fill:url(#linear-gradient-43);}.cls-48{fill:url(#linear-gradient-44);}.cls-49{fill:url(#linear-gradient-45);}.cls-50{fill:url(#linear-gradient-46);}.cls-51{fill:url(#linear-gradient-47);}.cls-52{fill:url(#linear-gradient-48);}.cls-53{fill:url(#linear-gradient-49);}.cls-54{fill:url(#linear-gradient-50);}.cls-55{fill:url(#linear-gradient-51);}.cls-56{fill:url(#linear-gradient-52);}.cls-57{fill:url(#linear-gradient-53);}.cls-58{fill:url(#linear-gradient-54);}.cls-59{fill:url(#linear-gradient-55);}.cls-60{fill:url(#linear-gradient-56);}.cls-61{fill:url(#linear-gradient-57);}.cls-62{fill:url(#linear-gradient-58);}.cls-63{fill:url(#linear-gradient-59);}.cls-64{fill:url(#linear-gradient-60);}.cls-65{fill:url(#linear-gradient-61);}.cls-66{fill:url(#linear-gradient-62);}.cls-67{fill:url(#linear-gradient-63);}.cls-68{fill:url(#linear-gradient-64);}.cls-69{fill:url(#linear-gradient-65);}.cls-70{fill:url(#linear-gradient-66);}.cls-71{fill:url(#linear-gradient-67);}.cls-72{fill:url(#linear-gradient-68);}.cls-73{fill:url(#linear-gradient-69);}.cls-74{fill:url(#linear-gradient-70);}.cls-75{fill:url(#linear-gradient-71);}.cls-76{fill:url(#linear-gradient-72);}.cls-77{fill:url(#linear-gradient-73);}.cls-78{fill:url(#linear-gradient-74);}.cls-79{fill:url(#linear-gradient-75);}.cls-80{fill:url(#linear-gradient-76);}.cls-81{fill:url(#linear-gradient-77);}.cls-82{fill:url(#linear-gradient-78);}.cls-83{fill:url(#linear-gradient-79);}.cls-84{fill:url(#linear-gradient-80);}.cls-85{fill:url(#linear-gradient-81);}.cls-86{fill:url(#linear-gradient-82);}.cls-87{fill:url(#linear-gradient-83);}.cls-88{fill:url(#linear-gradient-84);}.cls-89{fill:url(#linear-gradient-85);}.cls-90{fill:url(#linear-gradient-86);}.cls-91{fill:url(#linear-gradient-87);}.cls-92{fill:url(#linear-gradient-88);}.cls-93{fill:url(#linear-gradient-89);}.cls-94{fill:url(#linear-gradient-90);}.cls-95{fill:url(#linear-gradient-91);}.cls-96{fill:url(#linear-gradient-92);}.cls-97{fill:url(#linear-gradient-93);}.cls-98{fill:url(#linear-gradient-94);}.cls-99{fill:url(#linear-gradient-95);}.cls-100{fill:url(#linear-gradient-96);}.cls-101{fill:url(#linear-gradient-97);}.cls-102{fill:url(#linear-gradient-98);}.cls-103{fill:url(#linear-gradient-99);}.cls-104{fill:url(#linear-gradient-100);}.cls-105{fill:url(#linear-gradient-101);}.cls-106{fill:url(#linear-gradient-102);}.cls-107{fill:url(#linear-gradient-103);}.cls-108{fill:url(#linear-gradient-104);}.cls-109{fill:url(#linear-gradient-105);}.cls-110{fill:url(#linear-gradient-106);}.cls-111{fill:url(#linear-gradient-107);}.cls-112{fill:url(#linear-gradient-108);}.cls-113{fill:url(#linear-gradient-109);}.cls-114{fill:url(#linear-gradient-110);}.cls-115{fill:url(#linear-gradient-111);}.cls-116{fill:url(#linear-gradient-112);}.cls-117{fill:url(#linear-gradient-113);}</style><linearGradient id="linear-gradient" x1="3206.67" y1="386.21" x2="3190.26" y2="363.49" gradientTransform="matrix(-1, -0.02, -0.02, 1, 3609.56, 12.33)" gradientUnits="userSpaceOnUse"><stop offset="0" stop-color="#d7d873"/><stop offset="1" stop-color="#86ba47"/></linearGradient><linearGradient id="linear-gradient-2" x1="3487.14" y1="404" x2="3517.09" y2="371.51" xlink:href="#linear-gradient"/><linearGradient id="linear-gradient-3" x1="3312.23" y1="248.22" x2="3300.43" y2="204.18" xlink:href="#linear-gradient"/><linearGradient id="linear-gradient-4" x1="3407.76" y1="245.47" x2="3420.23" y2="214.99" xlink:href="#linear-gradient"/><linearGradient id="linear-gradient-5" x1="3279.05" y1="236.91" x2="3284.58" y2="265.25" gradientTransform="matrix(-1, -0.02, -0.02, 1, 3609.56, 12.33)" gradientUnits="userSpaceOnUse"><stop offset="0" stop-color="#7fb346"/><stop offset="1" stop-color="#2a8f37"/></linearGradient><linearGradient id="linear-gradient-6" x1="3423.91" y1="239.44" x2="3428.02" y2="260.52" xlink:href="#linear-gradient-5"/><linearGradient id="linear-gradient-7" x1="3251.4" y1="271.2" x2="3255.48" y2="291.18" gradientTransform="matrix(-1, -0.02, -0.02, 1, 3609.56, 12.33)" gradientUnits="userSpaceOnUse"><stop offset="0" stop-color="#b3c75e"/><stop offset="1" stop-color="#4fa034"/></linearGradient><linearGradient id="linear-gradient-8" x1="3435.57" y1="261.94" x2="3430.09" y2="287.97" xlink:href="#linear-gradient-7"/><linearGradient id="linear-gradient-9" x1="3226.27" y1="289.34" x2="3239.49" y2="316.22" xlink:href="#linear-gradient-7"/><linearGradient id="linear-gradient-10" x1="3474.77" y1="289.15" x2="3457.18" y2="315.07" xlink:href="#linear-gradient-7"/><linearGradient id="linear-gradient-11" x1="3494.24" y1="330.68" x2="3468.65" y2="346.62" xlink:href="#linear-gradient-7"/><linearGradient id="linear-gradient-12" x1="3213.22" y1="317.91" x2="3227.15" y2="346.22" xlink:href="#linear-gradient-7"/><linearGradient id="linear-gradient-13" x1="3253.84" y1="292.18" x2="3265.42" y2="315.72" xlink:href="#linear-gradient-7"/><linearGradient id="linear-gradient-14" x1="3432.15" y1="291.58" x2="3437.39" y2="318.44" gradientTransform="matrix(-1, -0.02, -0.02, 1, 3609.56, 12.33)" gradientUnits="userSpaceOnUse"><stop offset="0" stop-color="#55a534"/><stop offset="1" stop-color="#068136"/></linearGradient><linearGradient id="linear-gradient-15" x1="3472.72" y1="385.52" x2="3463.7" y2="368.55" gradientTransform="matrix(-1, -0.02, -0.02, 1, 3609.56, 12.33)" gradientUnits="userSpaceOnUse"><stop offset="0" stop-color="#3aa036"/><stop offset="1" stop-color="#078938"/></linearGradient><linearGradient id="linear-gradient-16" x1="3450.5" y1="373.78" x2="3437.6" y2="349.52" xlink:href="#linear-gradient-7"/><linearGradient id="linear-gradient-17" x1="3256.31" y1="314.76" x2="3259.96" y2="333.46" xlink:href="#linear-gradient-14"/><linearGradient id="linear-gradient-18" x1="3229.85" y1="378.92" x2="3218.2" y2="357.03" xlink:href="#linear-gradient-15"/><linearGradient id="linear-gradient-19" x1="3254.02" y1="370.23" x2="3242.38" y2="348.35" xlink:href="#linear-gradient-7"/><linearGradient id="linear-gradient-20" x1="3348.57" y1="185.08" x2="3348.57" y2="297.6" gradientTransform="matrix(-1, -0.02, -0.02, 1, 3609.56, 12.33)" gradientUnits="userSpaceOnUse"><stop offset="0" stop-color="#d9ece6"/><stop offset="1" stop-color="#e5e798"/></linearGradient><linearGradient id="linear-gradient-21" x1="3362.26" y1="123.31" x2="3353.67" y2="121.66" gradientTransform="matrix(-1, -0.02, -0.02, 1, 3609.56, 12.33)" gradientUnits="userSpaceOnUse"><stop offset="0" stop-color="#ce1322"/><stop offset="1" stop-color="#eb6834"/></linearGradient><linearGradient id="linear-gradient-22" x1="3358.49" y1="216.72" x2="3328.27" y2="216.72" gradientTransform="matrix(-1, -0.02, -0.02, 1, 3609.56, 12.33)" gradientUnits="userSpaceOnUse"><stop offset="0" stop-color="#7b8178"/><stop offset="1" stop-color="#b6b5a8"/></linearGradient><linearGradient id="linear-gradient-23" x1="3357.66" y1="246.26" x2="3329.85" y2="246.26" gradientTransform="matrix(-1, -0.02, -0.02, 1, 3609.56, 12.33)" gradientUnits="userSpaceOnUse"><stop offset="0" stop-color="#979e93"/><stop offset="1" stop-color="#d4d2c4"/></linearGradient><linearGradient id="linear-gradient-24" x1="3348.48" y1="157.92" x2="3341.86" y2="156.64" xlink:href="#linear-gradient-21"/><linearGradient id="linear-gradient-25" x1="3343.15" y1="196.7" x2="3336.34" y2="195.39" xlink:href="#linear-gradient-21"/><linearGradient id="linear-gradient-26" x1="3339.01" y1="267.33" x2="3317.99" y2="267.33" gradientTransform="matrix(-1, -0.02, -0.02, 1, 3609.56, 12.33)" gradientUnits="userSpaceOnUse"><stop offset="0" stop-color="#323330"/><stop offset="1" stop-color="#696960"/></linearGradient><linearGradient id="linear-gradient-27" x1="3339.01" y1="270.41" x2="3317.99" y2="270.41" gradientTransform="matrix(-1, -0.02, -0.02, 1, 3609.56, 12.33)" gradientUnits="userSpaceOnUse"><stop offset="0" stop-color="#4d504b"/><stop offset="1" stop-color="#84847c"/></linearGradient><linearGradient id="linear-gradient-28" x1="3339.01" y1="276.41" x2="3317.99" y2="276.41" gradientTransform="matrix(-1, -0.02, -0.02, 1, 3609.56, 12.33)" gradientUnits="userSpaceOnUse"><stop offset="0" stop-color="#343632"/><stop offset="1" stop-color="#6e6c64"/></linearGradient><linearGradient id="linear-gradient-29" x1="3339.01" y1="265.63" x2="3317.98" y2="265.63" gradientTransform="matrix(-1, -0.02, -0.02, 1, 3609.56, 12.33)" gradientUnits="userSpaceOnUse"><stop offset="0" stop-color="#565a54"/><stop offset="1" stop-color="#8e8e84"/></linearGradient><linearGradient id="linear-gradient-30" x1="3339.01" y1="265.69" x2="3317.99" y2="265.69" gradientTransform="matrix(-1, -0.02, -0.02, 1, 3609.56, 12.33)" gradientUnits="userSpaceOnUse"><stop offset="0" stop-color="#6a7068"/><stop offset="1" stop-color="#a5a197"/></linearGradient><linearGradient id="linear-gradient-31" x1="3331.57" y1="217.15" x2="3327.58" y2="216.38" xlink:href="#linear-gradient-21"/><linearGradient id="linear-gradient-32" x1="3386.98" y1="154.91" x2="3379.18" y2="153.41" xlink:href="#linear-gradient-21"/><linearGradient id="linear-gradient-33" x1="3382.36" y1="259.43" x2="3358.57" y2="259.43" xlink:href="#linear-gradient-26"/><linearGradient id="linear-gradient-34" x1="3382.36" y1="263.99" x2="3358.57" y2="263.99" xlink:href="#linear-gradient-27"/><linearGradient id="linear-gradient-35" x1="3382.36" y1="272.89" x2="3358.57" y2="272.89" xlink:href="#linear-gradient-28"/><linearGradient id="linear-gradient-36" x1="3382.36" y1="256.92" x2="3358.55" y2="256.92" xlink:href="#linear-gradient-29"/><linearGradient id="linear-gradient-37" x1="3382.36" y1="257" x2="3358.56" y2="257" xlink:href="#linear-gradient-30"/><linearGradient id="linear-gradient-38" x1="3374.51" y1="184.9" x2="3369.97" y2="184.03" xlink:href="#linear-gradient-21"/><linearGradient id="linear-gradient-39" x1="3422.77" y1="218.6" x2="3415.03" y2="217.11" xlink:href="#linear-gradient-21"/><linearGradient id="linear-gradient-40" x1="3418.3" y1="307.92" x2="3390.63" y2="307.92" xlink:href="#linear-gradient-26"/><linearGradient id="linear-gradient-41" x1="3417.22" y1="312.07" x2="3391.98" y2="312.07" xlink:href="#linear-gradient-27"/><linearGradient id="linear-gradient-42" x1="3418.39" y1="317.52" x2="3403.03" y2="317.52" xlink:href="#linear-gradient-28"/><linearGradient id="linear-gradient-43" x1="3412.14" y1="312.2" x2="3380.02" y2="312.2" xlink:href="#linear-gradient-29"/><linearGradient id="linear-gradient-44" x1="3416.4" y1="312.27" x2="3399.14" y2="312.27" xlink:href="#linear-gradient-30"/><linearGradient id="linear-gradient-45" x1="3410.36" y1="249.76" x2="3404.39" y2="248.62" xlink:href="#linear-gradient-21"/><linearGradient id="linear-gradient-46" x1="3397.95" y1="285.76" x2="3376.7" y2="285.76" xlink:href="#linear-gradient-22"/><linearGradient id="linear-gradient-47" x1="3397.02" y1="289.32" x2="3377.86" y2="289.32" xlink:href="#linear-gradient-23"/><linearGradient id="linear-gradient-48" x1="3397.88" y1="283.09" x2="3384.22" y2="283.09" gradientTransform="matrix(-1, -0.02, -0.02, 1, 3609.56, 12.33)" gradientUnits="userSpaceOnUse"><stop offset="0" stop-color="#7f847b"/><stop offset="1" stop-color="#bbb9ac"/></linearGradient><linearGradient id="linear-gradient-49" x1="3391.93" y1="283.71" x2="3364.3" y2="283.71" gradientTransform="matrix(-1, -0.02, -0.02, 1, 3609.56, 12.33)" gradientUnits="userSpaceOnUse"><stop offset="0" stop-color="#9fa89b"/><stop offset="1" stop-color="#dedccd"/></linearGradient><linearGradient id="linear-gradient-50" x1="3395.6" y1="283.78" x2="3380.75" y2="283.78" gradientTransform="matrix(-1, -0.02, -0.02, 1, 3609.56, 12.33)" gradientUnits="userSpaceOnUse"><stop offset="0" stop-color="#b3bcaf"/><stop offset="1" stop-color="#f3efdf"/></linearGradient><linearGradient id="linear-gradient-51" x1="3390.4" y1="229.99" x2="3385.26" y2="229" xlink:href="#linear-gradient-21"/><linearGradient id="linear-gradient-52" x1="3323.09" y1="298.18" x2="3298.54" y2="298.18" gradientTransform="matrix(-1, -0.02, -0.02, 1, 3609.56, 12.33)" gradientUnits="userSpaceOnUse"><stop offset="0" stop-color="#51554f"/><stop offset="1" stop-color="#8b8980"/></linearGradient><linearGradient id="linear-gradient-53" x1="3321.96" y1="302.7" x2="3299.93" y2="302.7" gradientTransform="matrix(-1, -0.02, -0.02, 1, 3609.56, 12.33)" gradientUnits="userSpaceOnUse"><stop offset="0" stop-color="#6d726a"/><stop offset="1" stop-color="#a7a69a"/></linearGradient><linearGradient id="linear-gradient-54" x1="3321.73" y1="298.8" x2="3306.36" y2="298.8" gradientTransform="matrix(-1, -0.02, -0.02, 1, 3609.56, 12.33)" gradientUnits="userSpaceOnUse"><stop offset="0" stop-color="#545953"/><stop offset="1" stop-color="#8f8e83"/></linearGradient><linearGradient id="linear-gradient-55" x1="3315.92" y1="303.57" x2="3282.75" y2="303.57" xlink:href="#linear-gradient-49"/><linearGradient id="linear-gradient-56" x1="3320.32" y1="303.66" x2="3302.49" y2="303.66" gradientTransform="matrix(-1, -0.02, -0.02, 1, 3609.56, 12.33)" gradientUnits="userSpaceOnUse"><stop offset="0" stop-color="#888f85"/><stop offset="1" stop-color="#c7c3b6"/></linearGradient><linearGradient id="linear-gradient-57" x1="3314.55" y1="245.41" x2="3308.37" y2="244.22" xlink:href="#linear-gradient-21"/><linearGradient id="linear-gradient-58" x1="3292.85" y1="335.18" x2="3264.62" y2="335.18" xlink:href="#linear-gradient-52"/><linearGradient id="linear-gradient-59" x1="3291.56" y1="339.89" x2="3266.23" y2="339.89" xlink:href="#linear-gradient-53"/><linearGradient id="linear-gradient-60" x1="3291.3" y1="335.83" x2="3273.62" y2="335.83" xlink:href="#linear-gradient-54"/><linearGradient id="linear-gradient-61" x1="3284.61" y1="340.8" x2="3246.46" y2="340.8" xlink:href="#linear-gradient-49"/><linearGradient id="linear-gradient-62" x1="3289.68" y1="340.89" x2="3269.17" y2="340.89" xlink:href="#linear-gradient-56"/><linearGradient id="linear-gradient-63" x1="3282.68" y1="280.3" x2="3275.58" y2="278.94" xlink:href="#linear-gradient-21"/><linearGradient id="linear-gradient-64" x1="3302.68" y1="340.4" x2="3282.13" y2="340.4" xlink:href="#linear-gradient-22"/><linearGradient id="linear-gradient-65" x1="3301.73" y1="344.21" x2="3283.33" y2="344.21" xlink:href="#linear-gradient-23"/><linearGradient id="linear-gradient-66" x1="3301.36" y1="341.35" x2="3288.21" y2="341.35" xlink:href="#linear-gradient-48"/><linearGradient id="linear-gradient-67" x1="3296.39" y1="345.37" x2="3268.04" y2="345.37" xlink:href="#linear-gradient-49"/><linearGradient id="linear-gradient-68" x1="3300.15" y1="345.44" x2="3284.9" y2="345.44" xlink:href="#linear-gradient-50"/><linearGradient id="linear-gradient-69" x1="3295.17" y1="296.42" x2="3289.88" y2="295.4" xlink:href="#linear-gradient-21"/><linearGradient id="linear-gradient-70" x1="3325.17" y1="311.05" x2="3309.68" y2="311.05" xlink:href="#linear-gradient-22"/><linearGradient id="linear-gradient-71" x1="3324.47" y1="313.7" x2="3310.54" y2="313.7" xlink:href="#linear-gradient-23"/><linearGradient id="linear-gradient-72" x1="3324.2" y1="318.27" x2="3314.07" y2="318.27" xlink:href="#linear-gradient-48"/><linearGradient id="linear-gradient-73" x1="3319.79" y1="318.73" x2="3299.28" y2="318.73" xlink:href="#linear-gradient-49"/><linearGradient id="linear-gradient-74" x1="3322.51" y1="318.78" x2="3311.49" y2="318.78" xlink:href="#linear-gradient-50"/><linearGradient id="linear-gradient-75" x1="3318.65" y1="278.87" x2="3314.84" y2="278.13" xlink:href="#linear-gradient-21"/><linearGradient id="linear-gradient-76" x1="3357.99" y1="225.09" x2="3351.46" y2="223.84" xlink:href="#linear-gradient-21"/><linearGradient id="linear-gradient-77" x1="3356.13" y1="293.87" x2="3335.68" y2="293.87" xlink:href="#linear-gradient-22"/><linearGradient id="linear-gradient-78" x1="3355.22" y1="297.37" x2="3336.82" y2="297.37" xlink:href="#linear-gradient-23"/><linearGradient id="linear-gradient-79" x1="3354.86" y1="303.4" x2="3341.48" y2="303.4" xlink:href="#linear-gradient-48"/><linearGradient id="linear-gradient-80" x1="3349.04" y1="304.02" x2="3322" y2="304.02" xlink:href="#linear-gradient-49"/><linearGradient id="linear-gradient-81" x1="3352.62" y1="304.08" x2="3338.07" y2="304.08" xlink:href="#linear-gradient-50"/><linearGradient id="linear-gradient-82" x1="3347.53" y1="251.37" x2="3342.5" y2="250.41" xlink:href="#linear-gradient-21"/><linearGradient id="linear-gradient-83" x1="3379.26" y1="257.82" x2="3374.32" y2="256.87" xlink:href="#linear-gradient-21"/><linearGradient id="linear-gradient-84" x1="3377.86" y1="309.9" x2="3362.37" y2="309.9" xlink:href="#linear-gradient-22"/><linearGradient id="linear-gradient-85" x1="3377.17" y1="312.55" x2="3363.24" y2="312.55" xlink:href="#linear-gradient-23"/><linearGradient id="linear-gradient-86" x1="3376.89" y1="317.12" x2="3366.76" y2="317.12" xlink:href="#linear-gradient-48"/><linearGradient id="linear-gradient-87" x1="3372.48" y1="317.59" x2="3352" y2="317.59" xlink:href="#linear-gradient-49"/><linearGradient id="linear-gradient-88" x1="3375.2" y1="317.63" x2="3364.18" y2="317.63" xlink:href="#linear-gradient-50"/><linearGradient id="linear-gradient-89" x1="3371.34" y1="277.72" x2="3367.53" y2="276.99" xlink:href="#linear-gradient-21"/><linearGradient id="linear-gradient-90" x1="3431.19" y1="355.38" x2="3411.78" y2="355.38" gradientTransform="matrix(-1, -0.02, -0.02, 1, 3609.56, 12.33)" gradientUnits="userSpaceOnUse"><stop offset="0" stop-color="#555b54"/><stop offset="1" stop-color="#8f8f85"/></linearGradient><linearGradient id="linear-gradient-91" x1="3430.28" y1="358.5" x2="3412.91" y2="358.5" gradientTransform="matrix(-1, -0.02, -0.02, 1, 3609.56, 12.33)" gradientUnits="userSpaceOnUse"><stop offset="0" stop-color="#72786e"/><stop offset="1" stop-color="#ada99d"/></linearGradient><linearGradient id="linear-gradient-92" x1="3429.93" y1="356.15" x2="3417.52" y2="356.15" gradientTransform="matrix(-1, -0.02, -0.02, 1, 3609.56, 12.33)" gradientUnits="userSpaceOnUse"><stop offset="0" stop-color="#585f57"/><stop offset="1" stop-color="#949288"/></linearGradient><linearGradient id="linear-gradient-93" x1="3425.23" y1="359.44" x2="3398.43" y2="359.44" gradientTransform="matrix(-1, -0.02, -0.02, 1, 3609.56, 12.33)" gradientUnits="userSpaceOnUse"><stop offset="0" stop-color="#7b8077"/><stop offset="1" stop-color="#b6b5a8"/></linearGradient><linearGradient id="linear-gradient-94" x1="3428.79" y1="359.5" x2="3414.4" y2="359.5" gradientTransform="matrix(-1, -0.02, -0.02, 1, 3609.56, 12.33)" gradientUnits="userSpaceOnUse"><stop offset="0" stop-color="#8d958a"/><stop offset="1" stop-color="#cdc8bb"/></linearGradient><linearGradient id="linear-gradient-95" x1="3423.75" y1="319.4" x2="3418.77" y2="318.44" xlink:href="#linear-gradient-21"/><linearGradient id="linear-gradient-96" x1="3348.65" y1="320.12" x2="3348.65" y2="360.07" gradientTransform="matrix(-1, -0.02, -0.02, 1, 3609.56, 12.33)" gradientUnits="userSpaceOnUse"><stop offset="0" stop-color="#7b8178"/><stop offset="1" stop-color="#373735"/></linearGradient><linearGradient id="linear-gradient-97" x1="3348.83" y1="320.12" x2="3348.83" y2="360.07" xlink:href="#linear-gradient-96"/><linearGradient id="linear-gradient-98" x1="3347.53" y1="320.12" x2="3347.53" y2="360.07" gradientTransform="matrix(-1, -0.02, -0.02, 1, 3609.56, 12.33)" gradientUnits="userSpaceOnUse"><stop offset="0" stop-color="#9fa89b"/><stop offset="1" stop-color="#5e5f5b"/></linearGradient><linearGradient id="linear-gradient-99" x1="3333.07" y1="320.6" x2="3333.07" y2="357.23" gradientTransform="matrix(-1, -0.02, -0.02, 1, 3609.56, 12.33)" gradientUnits="userSpaceOnUse"><stop offset="0" stop-color="#6b7068"/><stop offset="1" stop-color="#242423"/></linearGradient><linearGradient id="linear-gradient-100" x1="3407.71" y1="329.98" x2="3385.33" y2="329.98" xlink:href="#linear-gradient-22"/><linearGradient id="linear-gradient-101" x1="3406.7" y1="333.8" x2="3386.57" y2="333.8" xlink:href="#linear-gradient-23"/><linearGradient id="linear-gradient-102" x1="3406.31" y1="340.41" x2="3391.67" y2="340.41" xlink:href="#linear-gradient-48"/><linearGradient id="linear-gradient-103" x1="3399.93" y1="341.08" x2="3370.3" y2="341.08" xlink:href="#linear-gradient-49"/><linearGradient id="linear-gradient-104" x1="3403.86" y1="341.15" x2="3387.95" y2="341.15" xlink:href="#linear-gradient-50"/><linearGradient id="linear-gradient-105" x1="3398.29" y1="283.48" x2="3392.78" y2="282.42" xlink:href="#linear-gradient-21"/><linearGradient id="linear-gradient-106" x1="3342.2" y1="336.58" x2="3320.74" y2="336.58" xlink:href="#linear-gradient-22"/><linearGradient id="linear-gradient-107" x1="3341.2" y1="340.03" x2="3321.99" y2="340.03" xlink:href="#linear-gradient-23"/><linearGradient id="linear-gradient-108" x1="3340.81" y1="337.44" x2="3327.09" y2="337.44" xlink:href="#linear-gradient-48"/><linearGradient id="linear-gradient-109" x1="3335.62" y1="341.08" x2="3305.99" y2="341.08" xlink:href="#linear-gradient-49"/><linearGradient id="linear-gradient-110" x1="3339.55" y1="341.15" x2="3323.63" y2="341.15" xlink:href="#linear-gradient-50"/><linearGradient id="linear-gradient-111" x1="3333.98" y1="296.8" x2="3328.47" y2="295.74" xlink:href="#linear-gradient-21"/><linearGradient id="linear-gradient-112" x1="3388.07" y1="296.66" x2="3365.68" y2="381.35" gradientTransform="matrix(-1, 0, 0, 1, 3605.32, 0)" gradientUnits="userSpaceOnUse"><stop offset="0" stop-color="#d9dd9c"/><stop offset="1" stop-color="#7ab23d"/></linearGradient><linearGradient id="linear-gradient-113" x1="3391.39" y1="298.23" x2="3369.1" y2="382.51" gradientTransform="matrix(-1, 0, 0, 1, 3605.32, 0)" xlink:href="#linear-gradient-7"/></defs><title>Obszar roboczy 8</title><path class="cls-1" d="M274.4,190.67a7.32,7.32,0,0,0-1.81,6.6c1,5.57,7.06,12.61,13.17,14a4.44,4.44,0,0,0,1.16,1.5c-2.64,6.77-2.21,15.38,2.18,19.71a8.85,8.85,0,0,0,.6,6.68c1.75,3.4,5.83,6.11,11.8,7.83a45.61,45.61,0,0,0,11.83,1.78,46.57,46.57,0,0,0,4.74-.13c-.79,2.42.45,5.14,2.06,7.31a5.05,5.05,0,0,0-1.76,2.18c-1,2.45.13,5.4,3.1,8.11l.41.36a10.89,10.89,0,0,0-6.15,5.24c-2.07,4.26-.27,9.38,3,13.09a5.7,5.7,0,0,0-2,2.69c-1.23,3.61,1.55,7.65,4.57,10.23a21.81,21.81,0,0,0,2.84,2.07,8.8,8.8,0,0,0-1.41,4.36,9.27,9.27,0,0,0,2,6.14A4.91,4.91,0,0,0,324,312c-.63,2.13.2,4.66,2.27,6.94,3,3.26,8.29,5.2,14.6,5.34a30.6,30.6,0,0,0,5.71-.41c1.71,4,6,8.49,16.76,8.72a45.34,45.34,0,0,0,5.84-.27,15.88,15.88,0,0,0,1.64,1.47c7.39,5.69,15.63,11,25.89,11.2a33.36,33.36,0,0,0,10.72-1.61l22.4-.7a3,3,0,0,0,2.8-2c.7-2.44-.82-4.59-2.63-6.23a2.58,2.58,0,0,0,.21-4.58c.32-.31.64-.64.94-1a2.54,2.54,0,0,0-.36-3.64,12.16,12.16,0,0,0-2-1.38c2.58-2.37,3.91-5.21,3.32-7.68-.41-1.76-2-3.66-5.19-4,1.5-3,2.27-6.3,1.08-8.69a5.33,5.33,0,0,0-4.9-2.84,9.57,9.57,0,0,0-1.8.15,11.88,11.88,0,0,0-2.16-6,6.43,6.43,0,0,0-7.43-2.33,12.53,12.53,0,0,0-6.53-5.35,3.74,3.74,0,0,0-.37-2.11,3.89,3.89,0,0,0-.85-1.14c1-2,1.52-4.26.72-6.13A5,5,0,0,0,401,274.8a5,5,0,0,0-.71-.84,7.06,7.06,0,0,0-.39-3.31,2.92,2.92,0,0,0-1.23-1.41,12.76,12.76,0,0,0-1.77-6.58,5,5,0,0,0-3.67-2.33,10.32,10.32,0,0,0-1.89-3,9.87,9.87,0,0,0-2.14-1.83,2.38,2.38,0,0,0,.08-1.6,2.73,2.73,0,0,0-.7-1.16,4.36,4.36,0,0,0,.54-2.81,3.88,3.88,0,0,0-.95-1.94,4.36,4.36,0,0,0,.06-3.06,4.25,4.25,0,0,0-1.69-2,8.2,8.2,0,0,0-.11-5.65,4.22,4.22,0,0,0-2.85-2.29,11.6,11.6,0,0,0-2.25-5.16,6.08,6.08,0,0,0-4.63-2.51,5.38,5.38,0,0,0-1.4.16,5.76,5.76,0,0,0-4.89-3.2h-.13a5.37,5.37,0,0,0-3.37,1l-.18-.15a4.79,4.79,0,0,0-.27-3.18,4.28,4.28,0,0,0-2.28-2.13,7.43,7.43,0,0,0-1-4.51,4.42,4.42,0,0,0-2.79-1.89,8.49,8.49,0,0,0-1.46-4.31,4.53,4.53,0,0,0-3.57-1.84,4.14,4.14,0,0,0-.8.05,7.41,7.41,0,0,0-1.09-1.35,7.23,7.23,0,0,0-4.84-2.13,5.84,5.84,0,0,0-4.07,1.5,4.34,4.34,0,0,0-1.59-2.12,4.7,4.7,0,0,0,.19-3.33,4.11,4.11,0,0,0-1.84-2.22c1.34-2.31,2.19-5.13.14-7.83a6.58,6.58,0,0,0-5.19-2.7c-.21,0-.43,0-.65,0,.61-4.18.14-9-4.27-10.77a7.31,7.31,0,0,0-2.59-.53c-3.71-.08-6.69,2.57-8.76,5.63a5.43,5.43,0,0,0-2.08-.8,2.45,2.45,0,0,0-.28-1.56,2.86,2.86,0,0,0-1.1-1.11,6.39,6.39,0,0,0,.23-5,4.16,4.16,0,0,0-2-2,7.4,7.4,0,0,0-.66-4.49,6.08,6.08,0,0,0-5.35-3.3h-.11a7.93,7.93,0,0,0-1.2-5.47,7.5,7.5,0,0,0-5.86-3.44,5.66,5.66,0,0,0-1.6.19,6.84,6.84,0,0,0-5-2.4,6.45,6.45,0,0,0-4.43,1.61,6.38,6.38,0,0,0-1,1.13,5.53,5.53,0,0,0-1.55-.28c-3.33-.07-5.18,2.75-6,6h-.2a5.87,5.87,0,0,0-4.7,2,9.2,9.2,0,0,0-1.75,6.51c-3.33.53-5.69,2.35-6.62,5.19C267.08,179.12,270.2,186.35,274.4,190.67ZM66.7,340.58a3.3,3.3,0,0,0-.42,1.51c-.1,3.44,6.23,6.81,10.83,8.46a2.15,2.15,0,0,0,.18.48,12.06,12.06,0,0,0,11,6.73c5.14.12,11.39-2.26,17-6.42a39.35,39.35,0,0,0,6.92.91h.31c10.26.22,29.85-6.35,34-17.83a15.07,15.07,0,0,0,7.14-2.48h.3a42.4,42.4,0,0,0,8.7-.81c9.32-2,17.27-6.7,21.27-12.65a16.66,16.66,0,0,0,2.25-14.19,2.2,2.2,0,0,0-.31-.68l-5.13-8.09a21.41,21.41,0,0,0,10.18-12.05,24.16,24.16,0,0,0-3.27-21.06l-.54-14.77.34-.16c6.7-3.35,14.81-12.79,12-21.1,0-.11-.09-.23-.14-.34l-.23-.46a9.82,9.82,0,0,0,2.19-6.7,2.57,2.57,0,0,0-.06-.4l-2-8.43c.38,0,.77.05,1.17.05,7.21.16,14.6-2.8,18.4-7.36a11.12,11.12,0,0,0,2.18-11.06l-3-20.23c-.33-3.49-2.67-5.2-5-5.41a2.64,2.64,0,0,0-1.26-2.43,3.25,3.25,0,0,0-1.69-.51,2.9,2.9,0,0,0-.83.09,14.18,14.18,0,0,0-3.21-5.45,5.18,5.18,0,0,0-3.48-1.53,4.59,4.59,0,0,0-1.85.34c-2.47-2.78-6.4-6.54-9.61-6.61a4.19,4.19,0,0,0-2.82.95A8.88,8.88,0,0,0,184,149.7a7.25,7.25,0,0,0-1.87.21,6.12,6.12,0,0,0-3.91,2.66,6,6,0,0,0-.6,4.41,5.1,5.1,0,0,0-3.66,2c-1.25,1.75-.94,3.94,0,6.33a4,4,0,0,0-1.8,2.09,4.5,4.5,0,0,0,0,2.88,2.7,2.7,0,0,0-.49,1.09,7.58,7.58,0,0,0-.13,2.27l0,0a6.81,6.81,0,0,0-1.45,1.5,8.87,8.87,0,0,0-5.35-2.17,6.77,6.77,0,0,0-2.56.44,5.62,5.62,0,0,0-3.83,5.66,5.83,5.83,0,0,0-.73-.06,5.24,5.24,0,0,0-4.62,2.34,7.08,7.08,0,0,0-.69,5.42,4.15,4.15,0,0,0-2.79,2.19c-1,2.19.29,5.12,1.91,7.5a3.64,3.64,0,0,0-.93,1.23c-1.05,2.24.32,5,2,7.19a5,5,0,0,0-.7,1.55,6.25,6.25,0,0,0,1.28,5.07,4,4,0,0,0-.79,1.67,4.36,4.36,0,0,0,.32,2.6,3.93,3.93,0,0,0-1,3.1,4.89,4.89,0,0,0-2,2.26c-1.38-2.17-3.49-4.52-6.12-4.58a4.58,4.58,0,0,0-1.85.35,10.22,10.22,0,0,0-4.69-1.35,5.46,5.46,0,0,0-4.61,1.94,3.77,3.77,0,0,0-.48.82,5.19,5.19,0,0,0-4.32,2.77,4.14,4.14,0,0,0-.36,2.27,5.06,5.06,0,0,0-1.06.9l-.08.09h-.06a5.07,5.07,0,0,0-4.55,2.69,5.79,5.79,0,0,0-.64,2.07,4.21,4.21,0,0,0-2.85,2.18c-.87,1.76-.21,3.84.78,5.57a4.5,4.5,0,0,0-1.8,2.25A5.82,5.82,0,0,0,118,244.3a3.67,3.67,0,0,0-.7,1.42,5,5,0,0,0,1.52,4.57,4.85,4.85,0,0,0-.18.64,5.11,5.11,0,0,0-3.26,2.84,4.57,4.57,0,0,0-.14,3q-.3,0-.63,0a8.1,8.1,0,0,0-1.29.07,3.11,3.11,0,0,0-1.73.81h-.14a4.82,4.82,0,0,0-4.49,2.88,6.51,6.51,0,0,0-.46,3.8c-.12.07-.24.14-.35.22a2.6,2.6,0,0,0-1.08,2c-.19,2.77,1.42,5.31,4.58,7.35a3.87,3.87,0,0,0-.11.81A4.66,4.66,0,0,0,108,276.2a5.47,5.47,0,0,0-.7,3.62,3.58,3.58,0,0,0-1.47,2.39c-.22,1.68.88,3.35,2.38,4.67a4.07,4.07,0,0,0-.94.51,12,12,0,0,0-5.86-1.88,5.72,5.72,0,0,0-5,2.22,5.19,5.19,0,0,0-.78,3.81c-4.54-.05-7.42,1.12-8.56,3.47-.92,1.9-.36,3.88.78,5.71a4.21,4.21,0,0,0-2.73,2.51c-1.18,3.16,2.57,6.95,5.67,9.43l-.21.34a8.85,8.85,0,0,0-1.79-.21,10.12,10.12,0,0,0-2.5.26,2.71,2.71,0,0,0-2.21,3.25,8.54,8.54,0,0,1,.17.93c-.72.11-1.41.26-2.08.41l-.68.15a2.76,2.76,0,0,0-2.3,2.79,9.25,9.25,0,0,0,.18,1.3h0a5.86,5.86,0,0,0-5.06,2.31,4.7,4.7,0,0,0-.67,1.33c-.24,0-.46,0-.66,0a6.05,6.05,0,0,0-5.82,3.44,6,6,0,0,0-.31,3.92,3.74,3.74,0,0,0-2,2.34C64.39,336.91,65.24,338.9,66.7,340.58Z"/><path class="cls-2" d="M429.72,340c.72-2.5-4.15-5.35-5.34-6.15,2.08-.22,2.8-1.14,4.11-1.74-1.57-.53-3.88-2-5.25-2.38a6.4,6.4,0,0,0,5.51-2.48,12.38,12.38,0,0,0-6.58-2.51c8.95-3.75,10.26-13.07-1.44-8.76,5.47-5.76,8.32-16.75-3-10.94,1.94-4.91-1.67-14.68-7.86-8-.07-7.95-14.14-12.12-14.12-2.17-10.57-10.49-23.9,1.58-19.86,13-15.46-.87-10.75,18-3.15,23.87,9.82,7.56,20.22,13.53,34.07,8.95Z"/><path class="cls-3" d="M72.06,341.17c-4.67-2.18-6.74-8.26.09-5.41-5.6-4.72-.76-10.86,5.12-5.46-3.52-6.56,4.19-7.73,7.24-2.1a3.38,3.38,0,0,1,1.09-2.42c-1.83-1.41-3.26-3.08-3.41-5.34,2.32-.5,4.09-1.08,6.41,0-1.51-1.64-1.13-3-1.59-4.72A6.59,6.59,0,0,1,93.66,318c-1.39-2.38-.9-4.4,1.9-5.31-4-2.62-14-10.95-1.86-9.56-8.5-8-2.34-9.71,6.24-8.45-5-8.92,5.14-7.55,9-1.74-1.53-7.1,4.17-1.88,6,1.34.14-4.12,3.17-2.84,4.64.29l24.16,32.59c4,13.46-19.95,22.82-31.47,22.42a34.19,34.19,0,0,1-7.75-1.21c-8,6.42-20,10.49-24.52,1.59a15.31,15.31,0,0,0,1.26-1C77.42,348.64,63.43,341.24,72.06,341.17Z"/><path class="cls-4" d="M317.81,186.7a4.34,4.34,0,0,0-4.29-3.79c.91-.83.82-1.94,1.34-2.65-.77,0-1.87-.65-2.9-.56,2.09-2.09,4.25-8.37-1.77-5.91,3.56-3.94.84-10.72-5-6.58-.19-2.59,1.27-5.64-.38-8.05s-4.94-3.25-6.09.22c-.45-6.09-7.69-6.22-7.63.3-4.59-6.05-6.49.74-6.62,4.48-6.31-3.39-6.91,3.85-5.7,7.56-13.33-1.25-6.26,15.44.5,19.25-10.65,3.25,3.65,20.54,10.29,17.43-3.9,2.28,3.3,4.46,5.53,4.65,7.68.63,18.87-4.55,18.87-12.36Z"/><path class="cls-5" d="M214.84,171.77c-.24-2.92-2.6-4.19-5-1.63.27-1.4-.1-2.92,0-4.3-.92.39-1.85-.1-3,1.09.06-2.61-3.93-12-6.49-6.05-1.89-2.8-12.49-14-10.36-4.31-1.05-1.92-4.3-4.74-7-4-4.09,1.05-2.06,4.93-1.33,7.57-8.18-2.13-5.41,3.6-3,8-4.38-2.31-4.74,1.89-1.62,3.91a23.56,23.56,0,0,1-2.38-.14,5.22,5.22,0,0,0,1.16,4.43c-8.07-.73.31,8.27,3.29,9.67-7.88,4.11,9.64,12.76,13.26,14-5.84,2.42,2.16,6.52,5.06,7.09,9.31,1.83,24.19-4.42,20.55-14.83Z"/><path class="cls-6" d="M343.46,212.22c-.29-2.11-2.91-3.17-4.4-3.11,4.19-1.73,3.07-4.91-1.33-4.34,3.9-2.49,3.42-6.76-1.87-4.56,1.54-2.31,5.26-6,3.05-8.89s-5.88-.88-7.94,1.08c1.45-3,3.55-11.81-.89-13.57-5.24-2.08-9.92,7.19-10.32,10.53.3-2.25-.12-6.63-3.5-6-4.05.72-3.73,9.08-3.65,11.78-.57-2.48-2.69-3.91-5-2.34-2.72,1.83.14,7.65.86,9.94-3.53-4.32-7.75.33-6.38,4.37-12.74-6-18.24,19.43-9.46,24.54-3.16,6.83,3,10.79,9.81,12.77,15.31,4.42,34.72.12,41.16-14Z"/><path class="cls-7" d="M192.65,195.8c1.66-3.36-1.34-3.86-3.88-2,.32-1.72.88-3.65-.08-5.36-.95.68-2.56,1-3.42,2,1-3.22-3-12.55-5.48-6-1-3.34-2.62-7.25-6.35-8.77-2,1.57-1.67,4.07-1.76,6.33-.89-2.34-4.8-7.49-8.38-6.12s-1.57,6.12-.82,8.78c-6.39-6.6-9.77-1-5.62,5.28-8.91-3.2-3.16,5.68-.08,8.46-7.59-2.39-1.78,6.84,2.23,8.42-7.49.87,2.21,7.19,4.85,8.27-8,2.19,6.51,10.85,10.37,11.14,3.66,9.39,24.66,2.16,24-7.23Z"/><path class="cls-8" d="M367.23,231.8c.2-.59.77-.55.46-1.26-1.22-.12-2.4-.85-3.78-.7,2.07-1.76,1.47-3.27-1.45-3.2,2.21-2.17,1.85-5.63-2-4.24,1.44-2.61.91-9.25-3.51-5.06,1.26-3.16-.1-11-4.27-5.52.43-5.35-6.85-8-7.22-1.41-2.51-5.55-5.71-.82-5.62,3-4.15-3.69-8.4.5-6.23,4.86-4.13-1.74-7,1.24-4.51,4.76-7.24-2.56-4.3,6-.81,8.35-8.32,1.89,4.72,10.57,8.37,11.07-7-.42,6.41,6,8.91,6.55-5,1.34,2.35,2.7,4.59,2.84,8.15.52,19.6-3.91,22.46-11.34Z"/><path class="cls-9" d="M188.29,211.13a16.43,16.43,0,0,0-1.57-1.78c-.52.4-1.37.55-1.95,1.08-1.57-1.62-.78-1.15-2.89-1.3-.32-2.15-1.55-6.15-4.43-4.29-.66-2-3.56-7.91-5.19-3.27-1.89-4.23-8.91-5.87-6.67.4-4.73-4-9.66-1.33-5.46,3.82-6.73-2.12-7.16,3.37-2.25,6.4-4.32.24-2.94,3.68,0,4.9-3.58-1-4.51,1.86-1.7,3.72-4.3-.87-5.46,3.15-1.59,5-6.61-.13-.16,6.73,3.32,7.48-4,4.87,6.73,9.49,11,9.3.65,6,13,4.59,17,2.57,6.1-3.05,12.82-11.32,10.56-17.92Z"/><path class="cls-10" d="M382.24,259.81c3.73.25,3.82-2.86.22-3.18a6.06,6.06,0,0,0,3.86-2.09c-1.06-.33-1.62-1-2.9-1.16,2.67-.81,4.3-4.31.24-4.4,2.67-1.91,2.38-4.86-1.45-4.2,2.18-2.22,3-9.84-1.81-6.39,1.56-4.71-4.06-13-6.68-5.23-.12-1.82-.82-6.12-3.48-6.24-3.53-.16-4,6.93-4.76,8.91-2.38-4.67-5.71,1.08-4.55,4.31-3.21-2.57-5.46.77-5.12,3.63-9.33-4.05-7.49,9.43-3.41,13.13-5.79,1-6.1,6.07-3.12,9.87,6.72,8.57,28.71,7.48,31.87-3.36Z"/><path class="cls-11" d="M158,236.35c.42-1.68.07-2.43-2.29-2.39,1.64-2.26.83-5-2.12-4.66,0-2.51-2.14-5.78-5.09-3.76-.7-2-5-9.45-6.79-4.68-1.86-3.09-9.13-4.06-6.8.87-3.56-2-6.72.62-3.44,3.53-2.64-.54-4.18,1.08-3.51,3.52-2.2-4.14-6,.21-3.29,3.26-7.17-2-3.52,4.22-1,6.65-6.09-.81-4.33,4.25-.76,6.34-4.3.06-2.93,3.44,0,4.75-4.32,2.84,3,6.12,5.78,7.16-5,2.48,6.38,6.72,8.88,7.08.58,7.56,22.32.63,18.05-9.57Z"/><path class="cls-12" d="M143.9,259.64c-.78,0-2-.74-3.44-.12-.16-2.39-1.43-2.9-3.22-1-.94-2.7-5.93-8-5.46-2-1.37-1.92-7.29-7.51-7-2-5.47-3.27-9.62.58-4.23,4.61a28.32,28.32,0,0,0-2.26,3,4.11,4.11,0,0,0-4.55-2.63c.12.76-.28,1.69-.11,2.49-3.15-4.58-6.2,1.45-2.68,4.55-.84-.14-2,.22-2.91.1-.2,3.08,3.32,5.24,6.18,6.43-3,.82-1.52,3.24.39,5-3.35-3.63-5.79.44-3.49,3.51-5.3-.12-.37,4.68,2.43,5.22-3.84,1.8.41,4.13,3.31,4.49-2.37,1.71-.9,4,1.51,5.16-3.68,3,9.32,15.21,12.82,16a75,75,0,0,0,11.1,1.26c15.06.18,17.66-17.88,10.09-26.61Z"/><path class="cls-13" d="M389.43,299.9c2.84.6,5-.88,3.14-3,1.55.23,2.95-.4,4.43-.52-.19-.32-.48-.92-.76-1.31,2.95-.53,8.79-4.31,2.62-4.57,2.7-1.32,5.55-5.43.51-5.43,2.11-1.78,4.88-7.88-.3-7.7-.87-1.52-1.09-2.24-2.73-1.41a4.75,4.75,0,0,0,.65-4.41c-.47.13-1.29.15-1.86.31,1.52-2.82-.71-12.31-4.45-7.46,1.07-4.7-6.21-11.12-8.32-4.61-1.8-6.6-10.63-1.53-9,4-3.08-1.38-2.78,2-1.86,3.85a3.29,3.29,0,0,0-5.47.31c-4.23-4.47-9.36,1.43-6.39,5.64-7.93-3.17-2.73,8.38-.28,11.09-5.75.65-7.23,4.45-4.67,9.07,4.65,8.4,24.15,11.2,31.22,4.3Z"/><path class="cls-14" d="M357.49,262.45c-.62-1.27-.29-2.14-2.31-2.8a3.59,3.59,0,0,0,2.87-3,20.34,20.34,0,0,0-2.28-.68c2.62-1.38,7.62-5.68,1.05-5.87.91-2.25,4.34-10.18-2.34-7.73.53-2.53-.18-10.92-4.39-6,.67-5.51-7.94-8.61-8.21-1.19-5.45-6.56-8.15.3-9.56,4.54-6.41-3.87-11.12,3-7.3,7.87-7.68-.13-3,7.08.2,9.51-5.68.43-4.91,4.19-1.61,7.2,7,6.4,21,5.88,28.29.28Z"/><path class="cls-15" d="M183.69,237.36c-1.06-1.74-2.47-1.86-3.91-.58-1.19-1.49-1.81-1.91-3.42-.07,1.42-3.7-3.75-8.15-4.67-2.93-.92-3.2-8.9-9.74-7.47-2.91-4.95-3.72-10.64-5.72-7.19,1.75-1.24-.26-2.92.42-3.93.4.51,1.38.82,2.77,2.33,3.62a19.38,19.38,0,0,1-2.61,2.18c-2.23-3.51-9-4.93-5.5.31-5.7-4-7.46,1.18-2.72,4.68-5.76-.38-2.62,4.61.88,5.75a4.82,4.82,0,0,0-.56,6.31c-2.07-4.31-4.86-1.06-3.57,2.29-5.38-.15-1.26,3.65.93,5-5.57.78-.45,5.06,2.28,6.13-3.91,2.62,1,6.91,4,8.14-2.18,4.52,3.14,9.22,7.83,10.25-2.6,6.53,8.76,8.9,13.93,8.29,18.12-2.17,23.52-19.95,14.36-32.71Z"/><path class="cls-16" d="M142,302.26c-.78.85-1.89,1-2.57,2.06a2.66,2.66,0,0,0-5-.11,2.93,2.93,0,0,0-4.59-1c2-3.16-3.54-6.95-4.42-2.79-1.58-4.78-9.35-5.3-5.59.86-5.27-1.07-11.39,1.17-4.27,5.44-6.66-1.06-2.25,4.1,1.42,5.33-3.38,2.26.77,4.33,2.57,6.36-2.91-3.51-6-.43-3.19,2.75-1.09-.07-2.1.52-2.9.56.75,1.92,2.94,3,5.21,3.17-4.11,1.65.16,3.36,2.82,3.58-1.59,3.56,3.66,4.36,6.21,5.47,3.78,1.64,13.19,5,14.26-2.1,3.85.07,7.33,0,10.48-2.48,7-5.44,3-11,.95-17.31Z"/><path class="cls-17" d="M173,288.86c-.49-2.25-2.16-3.63-4-1.6-.29-2.33-1.84-2.6-3.52-1a6.65,6.65,0,0,0-2.38-5.84c-.52.45-1.43.72-2,1.22.26-2.88-4-9.8-6.39-4.65-3.23-5.34-9.64-9-8.26-.18-9.34-6.15-11.56,4.45-5.34,10.05-2-.92-5-.41-5.86,1.71-1.37,3.21,3.75,7,6.16,8.6-9,.53,3.39,7.11,5.38,8.37a5.11,5.11,0,0,0-2,5.26c-1.48-4.24-8.15-2.73-4.59,1.33-7.73-1-4.65,4.91.73,6-8.38.83,4,5.89,6.37,6.37-2.1,6.39,11.18,4.73,14.58,4,11.78-2.49,24.88-10.93,21.31-23.53Z"/><path class="cls-18" d="M362.92,291.16c-.3-1.16,1.13-1.77-.91-2.66,2-.08,2.33-.86,3.6-1.83-.37-.2-1-.76-1.51-1.05,2.75-1.94,5.14-7.24-.87-6.35,2.45-2.87,3.81-9.68-2.73-6.82,4-6.06-2.21-16.75-7.62-7.95.32-2.71-1-7.47-4.71-7.86-4.71-.51-5.17,5.18-6.37,8.06.06-7.2-15.27-3.89-10.88,5.89-3.47-3.78-10.43-1.78-12.42,2.34-2.13,4.41,1.55,10.28,5.59,12.86-7.38,1.06-4.48,6.8-.66,10.08,7.94,6.8,24.29,8.48,31.33-.35Z"/><path class="cls-19" d="M394.37,327.69c.9-.22,1.56-.25,2.11-.86-.86-.26-2.22-1.22-3.42-1.43,3.92-.19,4.06-3.09.45-3.49,4.27-1.87,10.66-9.17,1.31-7.78,5-4.89,4.38-15.45-4.55-8.92,4.53-8.08-5-16.5-9.4-6.53,1.56-8-8.4-7.51-8,.76-3.28-8.53-12.61-2.23-9.65,5.18-8-3.79-14.76,4.57-9.52,10.89-4.86-.9-5.6,3.63-4.52,6.74,3.27,9.38,17.65,8.18,25.55,6.38Z"/><path class="cls-20" d="M371.36,319.93c-.71-1.19-.75-2.22-2.28-3.13,1,0,1.82-.53,2.8-.57-.41-.37-1-2-1.84-2.57,2.2-.67,4-1.92,4-4a17.33,17.33,0,0,0-5.79-1.09c5.91-1.91,2.48-4.94-2.42-4.68,5.55-6.06,1.53-21.75-7-12.5,1.15-2.59,1.26-9.21-2.75-10.28-4.56-1.2-7.2,6.71-7.77,9.56-.57-5.67-6.69-.7-4.57,4.48-3.17-4.35-10.42-2.36-7.22,3.13-9.13-2.29-14.65,6.82-7.31,12.49-3.53,1.18-2.6,4.26-.58,6.48,5,5.46,18.42,5.6,24.13,1.4Z"/><path class="cls-21" d="M162.26,159.22a2.58,2.58,0,0,0,1.13,3.37,19.1,19.1,0,0,0,9.59,2.87,37.36,37.36,0,0,0,7.92-.93,47.39,47.39,0,0,1,9.89-1.16c.51,0,1,0,1.49.08l-.1,4.43a4.81,4.81,0,0,0-2.13,3.77,4.49,4.49,0,0,0,.87,2.73c-4,16.13-10.19,25.6-10.72,26.38a3.52,3.52,0,0,0-1.11,2.12,3.73,3.73,0,0,0,1.35,3.31,4.62,4.62,0,0,0,2.25,1l.15,0h0c-.88,8.33-2.32,19.19-4.29,32.37a4.68,4.68,0,0,0-3.21,4.15,4.18,4.18,0,0,0,.69,2.37c-3.27,13.08-8.26,20.83-8.81,21.65a3.32,3.32,0,0,0-1,3.07,3.94,3.94,0,0,0,3.06,3c-.59,5-1.44,10.28-2.52,15.7l-.05.22c-.1.5-.2,1-.3,1.47l-.06.28-.06.27-.32,1.5c-.5,2.3-1,4.62-1.61,6.9-.4,1.6-.79,3.09-1.16,4.47-1.73,6.42-3.13,10.52-3.14,10.56a2.47,2.47,0,0,0,.28,2.17,3,3,0,0,0,2,1.29l16.46,3.31,14.66,3.25a3.5,3.5,0,0,0,.65.08,3.93,3.93,0,0,0,.84-.09l.3.06a3,3,0,0,0,.59.06,3.14,3.14,0,0,0,2.36-.95,2.51,2.51,0,0,0,.51-2.76,65.35,65.35,0,0,1-3.64-12l9.4.17,19.05.35a2.8,2.8,0,0,0,.77-.08l87.53,6.31,11.6,2.92a3.67,3.67,0,0,0,.74.11,3.36,3.36,0,0,0,.9-.11l.26.06a3.85,3.85,0,0,0,.67.09,3.59,3.59,0,0,0,.93-.12l15.57,3.95a3.86,3.86,0,0,0,.75.1,3.42,3.42,0,0,0,1.15-.18l.64.15a3.07,3.07,0,0,0,.67.08,3.18,3.18,0,0,0,2.32-.9,2.52,2.52,0,0,0,.57-2.76c-8.64-20.91-11.24-62.84-11.9-77.19h.13a5,5,0,0,0,2.27-.75l.16-.11a4,4,0,0,0,1.72-4,3.89,3.89,0,0,0-1.77-2.54c-6.67-10.67-10.54-30.64-10.58-30.84,0,0,0-.07,0-.11a5.18,5.18,0,0,0,1.24-3.21c.07-3.12-2.77-5.71-6.32-5.79s-6.5,2.39-6.56,5.51a5.13,5.13,0,0,0,1.09,3.26c-1.07,4.56-2.32,9-3.75,13.24a5.9,5.9,0,0,0-3.88-1.55,5.5,5.5,0,0,0-5.49,3.78c-.33-5.29-.54-9.84-.67-13.14a4.37,4.37,0,0,0,.95-.22,4.54,4.54,0,0,0,1.07-.55l.17-.13a4,4,0,0,0,1.51-3.94,3.8,3.8,0,0,0-1.52-2.34c-5.76-10.22-9.09-29.38-9.13-29.58a.4.4,0,0,0,0-.15,5.17,5.17,0,0,0,1.1-3.06,6,6,0,0,0-12-.26,5.3,5.3,0,0,0,.95,3.1q-1.14,5.35-2.6,10.43c-.4-4.54-.72-8.32-.93-10.89l.21-.1.3-.17a3.56,3.56,0,0,0,.92-.8,3.32,3.32,0,0,0,.61-3.19,3.36,3.36,0,0,0-1.13-1.58,62.14,62.14,0,0,1-5.66-13.48,4.06,4.06,0,0,0,.61-2,4.24,4.24,0,0,0-1.5-3.29l.35-11a4.23,4.23,0,0,0,1.38-3,4.72,4.72,0,0,0-4.85-4.55,5.77,5.77,0,0,0-1.33.13c-.36-3.58-.64-6.66-.86-9.06a4.66,4.66,0,0,0,1.8-.63l.17-.1a3.86,3.86,0,0,0,1.76-3.87,3.73,3.73,0,0,0-1.76-2.5c-5.93-9-9.51-25.5-9.81-26.93a4.77,4.77,0,0,0,1.12-2.93,5.08,5.08,0,0,0-2.52-4.38l.57-17.49a5,5,0,0,0,2.26-4c.07-2.92-2.67-5.36-6.1-5.43s-6.27,2.24-6.33,5.16c0,.15,0,.3,0,.45a54,54,0,0,0-5.71-.48,22.89,22.89,0,0,0-6.49.67c-1.5.39-2.87.83-4.2,1.26-2.85.91-5.31,1.7-7.91,1.65a12.89,12.89,0,0,1-3.55-.6,3.52,3.52,0,0,0-.91-.14,3.11,3.11,0,0,0-2.5,1.12,2.51,2.51,0,0,0,0,3.23,14.46,14.46,0,0,0,4.68,3.62,8,8,0,0,1-1.14-.16,3.17,3.17,0,0,0-.68-.09,3,3,0,0,0-2.83,1.63A2.58,2.58,0,0,0,224,69a21,21,0,0,0,10.48,3.14,41.56,41.56,0,0,0,8.71-1,52.55,52.55,0,0,1,11.07-1.29q1,0,2,.12l-.12,5.34a5.06,5.06,0,0,0-2.36,4,4.74,4.74,0,0,0,1,3c-4.49,18.22-11.51,28.83-12,29.53a3.66,3.66,0,0,0-1.18,2.22,3.85,3.85,0,0,0,1.41,3.41,4.67,4.67,0,0,0,2.36,1.06l.46,0q-.71,6.36-1.86,14a114.83,114.83,0,0,1-6.27-20.33.14.14,0,0,1,0-.06,5.37,5.37,0,0,0-.87-6.79l.52-17.91a5.29,5.29,0,0,0,1.57-3.68,5.2,5.2,0,1,0-10.4-.22A5.32,5.32,0,0,0,229,86a62.21,62.21,0,0,0-6.3-.55,22.74,22.74,0,0,0-5.94.57c-1.37.34-2.62.72-3.83,1.09a23.08,23.08,0,0,1-7.15,1.4,12.12,12.12,0,0,1-3.2-.51,3.57,3.57,0,0,0-.85-.13,3.12,3.12,0,0,0-2.55,1.17,2.51,2.51,0,0,0,.12,3.24,12.56,12.56,0,0,0,2.64,2.24,3,3,0,0,0-2.71,1.67,2.6,2.6,0,0,0,1.21,3.37,20.34,20.34,0,0,0,9.62,2.73,40.11,40.11,0,0,0,8-.88,49.94,49.94,0,0,1,10-1.1c.6,0,1.19,0,1.75.1l-.11,5a5.36,5.36,0,0,0-.93,6.5c-3.16,18-7.87,23.38-7.91,23.43a2.56,2.56,0,0,0-.41.6,4,4,0,0,0,2.12,6.24c-.32,4.74-.73,10.5-1.22,17.38-.28-1.1-.46-1.92-.55-2.35a4.24,4.24,0,0,0,.83-2.4c.05-2.59-2.36-4.77-5.4-4.83s-5.54,2-5.6,4.6a4.24,4.24,0,0,0,.72,2.43c-3.38,13.56-8.56,21.57-9.11,22.39l-.16.17c-.68-2.54-1.09-4.42-1.23-5a4.51,4.51,0,0,0,1-2.7,4.81,4.81,0,0,0-2.27-4.09l.5-15.48a4.71,4.71,0,0,0,2-3.71c.06-2.78-2.54-5.1-5.79-5.17s-6,2.13-6,4.92v.09a45.34,45.34,0,0,0-4.84-.39,21.3,21.3,0,0,0-5.92.61c-1.37.36-2.6.76-3.8,1.14a21.48,21.48,0,0,1-7,1.47,11.13,11.13,0,0,1-3.11-.52,3.28,3.28,0,0,0-3.41,1,2.52,2.52,0,0,0,0,3.24,13.07,13.07,0,0,0,3,2.62l-.21,0A3,3,0,0,0,162.26,159.22Zm41.51,26.17a5.27,5.27,0,0,0,.68.19c0,.46-.09.93-.14,1.42C204.12,186.45,203.94,185.92,203.77,185.39Zm101.79,37.92c-.08.39-.17.79-.26,1.18,0-.65-.09-1.29-.13-1.92A4.73,4.73,0,0,0,305.56,223.31Z"/><path class="cls-22" d="M260.29,67.09c-2.07-1.43-4.05-2.52-3.85-4.85.18-2.06,2.26-3.42,3.79-4.85-5.69-.43-12.05-2.1-17.51-.67-6.21,1.63-10.78,4.34-17.48,2.28,3.34,4,9.64,5,14.08,4.65-4,1.62-9.11,4.14-13.7,3.08,6,3.52,10.38,3,16.89,1.72,5.54-1.1,11.94-2.14,17.51-.57Z"/><polygon class="cls-23" points="260.56 77.24 261.31 54.19 259.58 53.95 259.06 78 260.56 77.24"/><path class="cls-24" d="M269.38,110.93s5.58,71.91,15.82,95.25l-51.33-6.77s12.77-54.29,15.51-86.43l6.77-5.22Z"/><path class="cls-25" d="M267.36,117.84c.39,13.95,8.34,69.89,15.54,88.29l-1.41,45.59s-27.85,11-41.14-4.32c-7.9-9.11-4.18-47.94-4.18-47.94S248,148.91,251,118.59C258.06,116.08,264.24,117.28,267.36,117.84Z"/><path class="cls-23" d="M271.73,113.83c-7.62-1.71-18.18-1.66-25,1.81-1.67.86-3.15-1.32-1.5-2.17,7.48-3.83,19-3.89,27.32-2,1.91.43,1,2.8-.86,2.37Z"/><path class="cls-26" d="M271.73,113.83c-7.62-1.71-18.18-1.66-25,1.81a1.53,1.53,0,0,1-1.73-.16c1.59-1.28,5.29-3.15,13.44-3.44,10.1-.36,14,1,14.84,1.36A1.61,1.61,0,0,1,271.73,113.83Z"/><path class="cls-26" d="M256.76,79.38c0,1.43,1.37,2.61,3.14,2.65s3.22-1.08,3.25-2.51-1.37-2.61-3.14-2.64S256.79,78,256.76,79.38Z"/><path class="cls-23" d="M257.86,78.89a2.42,2.42,0,1,0,2.4-1.86A2.17,2.17,0,0,0,257.86,78.89Z"/><path class="cls-27" d="M260.11,78.32a.91.91,0,1,0,.91-.7A.82.82,0,0,0,260.11,78.32Z"/><path class="cls-28" d="M272.94,111.84s-12.21-3.16-27.66,1.46c0,0,7.92-11.39,12.71-31.72,0,0,3.1-1.17,4.07,1.32C262.06,82.9,266,102.19,272.94,111.84Z"/><path class="cls-26" d="M257.07,53.54c0,1.42,1.38,2.61,3.14,2.65a3,3,0,0,0,3.26-2.51c0-1.43-1.38-2.61-3.15-2.65S257.1,52.12,257.07,53.54Z"/><path class="cls-23" d="M258.17,53.05a2.42,2.42,0,1,0,2.41-1.86A2.18,2.18,0,0,0,258.17,53.05Z"/><path class="cls-27" d="M260.42,52.47a.92.92,0,1,0,.91-.7A.82.82,0,0,0,260.42,52.47Z"/><path class="cls-29" d="M275,139.33c-1.67-.84-3.27-1.48-3.12-2.84.13-1.19,1.81-2,3-2.79-4.57-.28-9.69-1.28-14.08-.48-5,.92-8.64,2.47-14,1.24,2.71,2.35,7.78,3,11.35,2.77-3.21.92-7.3,2.36-11,1.72,4.85,2.08,8.36,1.8,13.59,1.08,4.44-.61,9.58-1.18,14.07-.24Z"/><polygon class="cls-23" points="275.13 145.74 275.61 130.31 274.57 130.16 274.22 146.25 275.13 145.74"/><path class="cls-30" d="M280.46,164.36s5.59,73.47,11.72,89.07l-31.41-3.22s6-62.94,7.67-84.46l4.07-3.5Z"/><path class="cls-31" d="M279.24,169c.21,9.34,7.25,72.13,11.55,84.42l-28.64-3.16s5.37-60.44,7.22-80.74A16.73,16.73,0,0,1,279.24,169Z"/><path class="cls-32" d="M273.45,213.75l-.6,3.85a51.45,51.45,0,0,1,7.57.81l-.42-4A26.08,26.08,0,0,0,273.45,213.75ZM266,207.23l5.13-.25.37-2.94a27.85,27.85,0,0,0-5-.11Zm6.85-13.11-.28,3.22a50.31,50.31,0,0,1,5.43.39l.17-3.22A14,14,0,0,0,272.85,194.12Zm2.52-7.4.06-2.86a14.76,14.76,0,0,0-5,0l-.26,2.75C270.65,186.52,275.37,186.72,275.37,186.72Zm-5.29,7.34a3.74,3.74,0,0,0-2,.14l-.38,3.31,2.16-.23Zm-6,55.57,6.13-27.29.29-4a16.13,16.13,0,0,0-6.37.23Z"/><path class="cls-33" d="M264.91,202.75a1.42,1.42,0,0,1,0,.2l1-.15c.11-.62.23-1.25.34-1.9,0,0,0-.05,0-.08.12-.64.22-1.29.33-1.95l-.88.12v0c-.11.64-.23,1.28-.35,1.91l0,.11C265.13,201.61,265,202.19,264.91,202.75Zm-2.2,9.91,1.19-.21c.27-1.23.55-2.56.84-4l-1.09.16h0C263.33,210.07,263,211.42,262.71,212.66Z"/><path class="cls-34" d="M282.42,220.76a36.83,36.83,0,0,0-5.82-.95l-.07,3.31,6.73,1.62Zm-5.23-29.09a25.9,25.9,0,0,1,2.75.51c-.07-1.38-.13-2.7-.17-3.92-.75-.17-1.6-.34-2.57-.47ZM279,212.5a20.78,20.78,0,0,1,2.88.83c-.19-1.35-.37-2.71-.53-4.08a23.52,23.52,0,0,0-2.42-.65Zm-8.92-13.93c-1.11.05-2.3.15-3.55.3-.22,1.35-.45,2.66-.68,3.93,1.27-.16,2.48-.27,3.61-.34Zm-2.85,9.59-.71,3.93a48.34,48.34,0,0,1,6-.31l.38-3.85A45.54,45.54,0,0,0,267.21,208.16Zm-3.31,4.29,1.27-.19.69-3.95-1.12.17C264.45,209.89,264.17,211.22,263.9,212.45Zm16.5-12.93a28.11,28.11,0,0,0-4-.75l.35,3.92a25.53,25.53,0,0,1,4,.81C280.61,202.16,280.5,200.83,280.4,199.52Zm-6-8.12-.07-3.87a44.32,44.32,0,0,0-6.28.16c-.14,1.31-.31,2.61-.47,3.9A43.92,43.92,0,0,1,274.42,191.4Z"/><path class="cls-23" d="M281.87,166.29c-4.57-1.13-10.93-1.09-15,1.25a.85.85,0,1,1-.9-1.45c4.5-2.58,11.41-2.63,16.44-1.39,1.14.29.62,1.88-.53,1.59Z"/><path class="cls-26" d="M281.87,166.29c-4.57-1.13-10.93-1.09-15,1.25a.84.84,0,0,1-1-.11c1-.85,3.19-2.11,8.09-2.32,6.07-.26,8.39.63,8.92.89A.9.9,0,0,1,281.87,166.29Z"/><path class="cls-26" d="M272.83,147.18a1.94,1.94,0,0,0,3.85.08,1.94,1.94,0,0,0-3.85-.08Z"/><path class="cls-23" d="M273.5,146.85A1.43,1.43,0,1,0,275,145.6,1.36,1.36,0,0,0,273.5,146.85Z"/><path class="cls-27" d="M274.85,146.46a.52.52,0,0,0,.53.5.53.53,0,0,0,.55-.47.52.52,0,0,0-.53-.5A.52.52,0,0,0,274.85,146.46Z"/><path class="cls-35" d="M282.61,165A30.48,30.48,0,0,0,266,166s4.69-3.72,7.6-17.34c0,0,1.87-.78,2.45.89C276,149.53,278.44,158.51,282.61,165Z"/><path class="cls-26" d="M273.06,129.88a1.83,1.83,0,0,0,1.88,1.77,1.74,1.74,0,1,0-1.88-1.77Z"/><path class="cls-23" d="M273.72,129.56a1.43,1.43,0,1,0,1.45-1.25A1.35,1.35,0,0,0,273.72,129.56Z"/><path class="cls-27" d="M275.08,129.17a.54.54,0,0,0,1.07,0,.51.51,0,0,0-.53-.49A.5.5,0,0,0,275.08,129.17Z"/><path class="cls-36" d="M233.57,97.62c-1.88-1.23-3.68-2.17-3.51-4.18.16-1.77,2.06-2.93,3.44-4.17-5.17-.37-11-1.82-15.94-.59-5.65,1.4-9.8,3.72-15.9,1.94,3,3.47,8.78,4.33,12.82,4-3.64,1.4-8.29,3.56-12.47,2.64,5.47,3,9.45,2.6,15.38,1.5,5-.94,10.86-1.82,15.94-.47Z"/><polygon class="cls-23" points="233.7 107.11 234.36 84.26 233.19 84.04 232.68 107.88 233.7 107.11"/><path class="cls-37" d="M239.61,134.65s5.77,108.8,12.58,131.87L216.65,262s7.23-93.28,9.32-125.16l4.64-5.22Z"/><path class="cls-38" d="M238.18,141.51c.18,13.83,7.68,106.79,12.45,125L218.22,262s6.54-89.57,8.79-119.65A14.71,14.71,0,0,1,238.18,141.51Z"/><path class="cls-39" d="M231.28,207.88l-.7,5.71a44.71,44.71,0,0,1,8.57,1.14l-.45-5.88A22.82,22.82,0,0,0,231.28,207.88Zm-8.38-9.6,5.81-.42.45-4.36a24.82,24.82,0,0,0-5.7-.12Zm7.85-19.48-.33,4.77a45.61,45.61,0,0,1,6.14.54l.22-4.77A12.22,12.22,0,0,0,230.75,178.8Zm2.91-11,.09-4.23a12.89,12.89,0,0,0-5.69,0l-.32,4.09C228.32,167.56,233.66,167.82,233.66,167.82Zm-6,10.92a3.35,3.35,0,0,0-2.22.22l-.45,4.9,2.45-.35Zm-7.23,82.36,7.14-40.48.35-5.86s-4.16-.91-7.2.39Z"/><path class="cls-40" d="M221.7,191.65a2.54,2.54,0,0,0,0,.29c.36-.07.73-.16,1.08-.22.14-.92.27-1.87.4-2.82,0,0,0-.08,0-.12.13-.95.26-1.92.39-2.89l-1,.18v0c-.14,1-.28,1.91-.42,2.84l0,.16C222,190,221.83,190.81,221.7,191.65Zm-2.57,14.69c.46-.11.91-.22,1.35-.31.31-1.84.65-3.81,1-5.9-.41.08-.81.15-1.23.25h0C219.85,202.51,219.49,204.5,219.13,206.34Z"/><path class="cls-41" d="M241.4,218.19a33.34,33.34,0,0,0-6.59-1.37l-.11,4.91,7.62,2.35Zm-5.7-43.06a24.39,24.39,0,0,1,3.1.75c-.06-2-.12-4-.17-5.82a25.17,25.17,0,0,0-2.9-.67ZM237.56,206a19.9,19.9,0,0,1,3.26,1.22c-.21-2-.4-4-.57-6a21.77,21.77,0,0,0-2.74-1Zm-10-20.55c-1.26.08-2.6.24-4,.47-.26,2-.53,4-.8,5.83,1.45-.25,2.81-.43,4.09-.53Zm-3.3,14.22-.83,5.83a40.22,40.22,0,0,1,6.77-.5l.45-5.72A40.16,40.16,0,0,0,224.26,199.64ZM220.48,206l1.44-.3.82-5.85c-.42.07-.85.16-1.28.25C221.13,202.22,220.79,204.19,220.48,206Zm18.79-19.28a24,24,0,0,0-4.52-1.09l.37,5.8a24.58,24.58,0,0,1,4.5,1.18C239.49,190.65,239.38,188.68,239.27,186.75Zm-6.71-12L232.5,169a36.92,36.92,0,0,0-7.1.28c-.18,1.95-.37,3.87-.57,5.78A38.36,38.36,0,0,1,232.56,174.76Z"/><path class="cls-23" d="M241.18,137.51c-5.17-1.65-12.36-1.53-17,2-1.14.86-2.14-1.29-1-2.14,5.12-3.85,13-4,18.63-2.18,1.3.41.69,2.77-.61,2.36Z"/><path class="cls-26" d="M241.18,137.51c-5.17-1.65-12.36-1.53-17,2a.79.79,0,0,1-1.18-.15c1.1-1.28,3.63-3.15,9.19-3.5,6.88-.43,9.5.87,10.09,1.25A.91.91,0,0,1,241.18,137.51Z"/><path class="cls-26" d="M231.1,109.26a2.2,2.2,0,1,0,2.23-2.51A2.39,2.39,0,0,0,231.1,109.26Z"/><path class="cls-23" d="M231.85,108.77a1.63,1.63,0,1,0,1.65-1.86A1.76,1.76,0,0,0,231.85,108.77Z"/><path class="cls-27" d="M233.38,108.19a.68.68,0,0,0,.6.73.69.69,0,0,0,.63-.71.67.67,0,0,0-.6-.72A.66.66,0,0,0,233.38,108.19Z"/><path class="cls-42" d="M242,135.52s-8.3-3-18.86,1.64c0,0,5.35-5.54,8.75-25.73a1.8,1.8,0,0,1,2.76,1.29S237.35,126,242,135.52Z"/><path class="cls-26" d="M231.48,83.64a2.2,2.2,0,1,0,2.23-2.51A2.39,2.39,0,0,0,231.48,83.64Z"/><path class="cls-23" d="M232.23,83.15a1.63,1.63,0,1,0,1.66-1.86A1.76,1.76,0,0,0,232.23,83.15Z"/><path class="cls-27" d="M233.77,82.57a.67.67,0,0,0,.59.73.68.68,0,0,0,.63-.71.62.62,0,1,0-1.22,0Z"/><path class="cls-43" d="M196.25,160.65c-1.86-1.29-3.64-2.27-3.47-4.38.16-1.85,2-3.07,3.41-4.37-5.11-.38-10.84-1.89-15.77-.6-5.59,1.47-9.7,3.91-15.73,2.06,3,3.62,8.68,4.52,12.68,4.18-3.6,1.47-8.2,3.73-12.34,2.78,5.41,3.17,9.35,2.71,15.21,1.55,5-1,10.75-1.93,15.77-.51Z"/><polygon class="cls-23" points="196.5 169.78 197.17 149.02 195.62 148.81 195.15 170.47 196.5 169.78"/><path class="cls-44" d="M204.44,200.13s6.45,75.2,15.67,96.22l-47-4.45s10.89-61,13.36-89.93l6.09-4.7Z"/><path class="cls-45" d="M202.61,206.34c.36,12.57,8.95,73.4,15.42,90L175.14,292s10-57.63,12.72-84.93A27.56,27.56,0,0,1,202.61,206.34Z"/><path class="cls-46" d="M194.21,261.31l-.89,5.19a85.56,85.56,0,0,1,11.35,1.11l-.65-5.34A43,43,0,0,0,194.21,261.31ZM183,252.52l7.69-.33.55-3.95a47.14,47.14,0,0,0-7.53-.16Zm10.21-17.62-.4,4.33c2.61-.07,8.13.54,8.13.54l.25-4.33A23.21,23.21,0,0,0,193.24,234.9Zm3.75-10,.08-3.85a24.68,24.68,0,0,0-7.53,0l-.38,3.71C189.93,224.66,197,224.94,197,224.94Zm-7.9,9.87a6.05,6.05,0,0,0-2.92.18l-.55,4.45,3.23-.3ZM178,291.14l11.35-18.28.42-5.32s-5.51-.86-9.53.29Z"/><path class="cls-47" d="M181.39,246.49l-.06.26c.48-.07,1-.14,1.44-.19.17-.84.33-1.69.49-2.56,0,0,0-.07,0-.1.17-.87.33-1.75.49-2.63l-1.32.15a0,0,0,0,1,0,0c-.17.87-.34,1.72-.52,2.57a.8.8,0,0,0,0,.15C181.72,245,181.56,245.72,181.39,246.49Zm-3.27,13.32,1.78-.27c.4-1.66.82-3.45,1.25-5.35l-1.63.21h0C179.05,256.34,178.57,258.14,178.12,259.81Z"/><path class="cls-48" d="M207.67,270.78a62,62,0,0,0-8.72-1.31l-.1,4.46,10.09,2.21Zm-7.93-39.17c1.57.19,2.94.44,4.12.7-.11-1.87-.2-3.63-.28-5.29-1.11-.23-2.39-.45-3.84-.63Zm2.74,28a33.82,33.82,0,0,1,4.32,1.14c-.29-1.81-.56-3.65-.81-5.5a36.58,36.58,0,0,0-3.62-.88Zm-13.4-18.76q-2.49.09-5.31.39c-.32,1.81-.66,3.58-1,5.29,1.9-.22,3.7-.36,5.4-.45Zm-4.23,12.89-1.06,5.29a76.32,76.32,0,0,1,9-.39l.55-5.2A74.72,74.72,0,0,0,184.85,253.77Zm-4.95,5.77,1.91-.26,1-5.31c-.54.06-1.12.14-1.68.22C180.72,256.09,180.3,257.88,179.9,259.54Zm24.68-17.35a44.84,44.84,0,0,0-6-1l.53,5.27a44.79,44.79,0,0,1,6,1.11C204.9,245.74,204.73,244,204.58,242.19Zm-9-10.95-.12-5.21a72.63,72.63,0,0,0-9.39.19c-.22,1.77-.46,3.52-.71,5.25A72.58,72.58,0,0,1,195.59,231.24Z"/><path class="cls-23" d="M206.55,202.73c-6.86-1.54-16.36-1.49-22.47,1.64-1.5.77-2.84-1.2-1.35-2,6.72-3.45,17.07-3.5,24.6-1.81,1.72.39.94,2.52-.78,2.13Z"/><path class="cls-26" d="M206.55,202.73c-6.86-1.54-16.36-1.49-22.47,1.64a1.38,1.38,0,0,1-1.56-.15c1.43-1.15,4.76-2.83,12.11-3.1,9.09-.32,12.56.88,13.36,1.23A1.45,1.45,0,0,1,206.55,202.73Z"/><path class="cls-26" d="M193.07,171.72a2.95,2.95,0,1,0,2.93-2.26A2.64,2.64,0,0,0,193.07,171.72Z"/><path class="cls-23" d="M194.06,171.27a2.18,2.18,0,1,0,2.17-1.67A2,2,0,0,0,194.06,171.27Z"/><path class="cls-27" d="M196.09,170.76a.74.74,0,0,0,.79.67.75.75,0,0,0,.82-.64.82.82,0,0,0-1.61,0Z"/><path class="cls-49" d="M207.64,200.94a50.63,50.63,0,0,0-24.9,1.32s7.13-10.26,11.44-28.57c0,0,2.79-1.05,3.66,1.19C197.84,174.88,201.38,192.25,207.64,200.94Z"/><path class="cls-26" d="M193.35,148.44a2.95,2.95,0,1,0,2.93-2.26A2.66,2.66,0,0,0,193.35,148.44Z"/><path class="cls-23" d="M194.34,148a2.18,2.18,0,1,0,2.17-1.67A2,2,0,0,0,194.34,148Z"/><path class="cls-27" d="M196.37,147.48a.82.82,0,1,0,.82-.63A.74.74,0,0,0,196.37,147.48Z"/><path class="cls-50" d="M223.43,179.15s1.28,75.95,9.22,94l-36.2-.67s9.36-66.88,11.49-91.79l5.24-4Z"/><path class="cls-51" d="M221.86,184.5c.31,10.81,3.43,74.4,9,88.65l-32.63-.6s8.6-64,10.93-87.47A23.78,23.78,0,0,1,221.86,184.5Z"/><path class="cls-52" d="M214.63,231.8l-.76,4.46a72.72,72.72,0,0,1,9.76,1l-.57-4.6A36.43,36.43,0,0,0,214.63,231.8ZM205,224.23l6.62-.28.46-3.41a41.85,41.85,0,0,0-6.47-.14Zm8.78-15.17-.34,3.73c2.25-.06,7,.47,7,.47l.21-3.73A20.12,20.12,0,0,0,213.79,209.06ZM217,200.5l.08-3.31a21.07,21.07,0,0,0-6.48,0l-.33,3.19C211,200.26,217,200.5,217,200.5ZM210.23,209a5.14,5.14,0,0,0-2.51.16l-.48,3.83,2.78-.26Zm-10.07,38.06,10.29-5.32.36-4.58a23,23,0,0,0-8.2.25Z"/><path class="cls-53" d="M203.6,219c0,.07,0,.15,0,.22l1.23-.16c.15-.72.29-1.46.43-2.2a.29.29,0,0,0,0-.09l.42-2.26-1.13.13v0c-.15.75-.3,1.49-.46,2.22a.5.5,0,0,1,0,.12C203.89,217.72,203.74,218.38,203.6,219Zm-2.81,11.46,1.53-.23c.34-1.43.7-3,1.07-4.61l-1.39.19h0C201.59,227.51,201.18,229.06,200.79,230.5Z"/><path class="cls-54" d="M226.21,239.94a52.52,52.52,0,0,0-7.51-1.12l-.08,3.83,8.68,1.9Zm-6.82-33.7c1.36.17,2.54.38,3.55.6-.1-1.6-.17-3.13-.24-4.55-1-.2-2.06-.39-3.31-.54Zm2.36,24.12a28.62,28.62,0,0,1,3.72,1c-.25-1.56-.49-3.14-.69-4.73a30.18,30.18,0,0,0-3.13-.76Zm-11.53-16.15c-1.43.06-3,.17-4.57.34-.28,1.56-.57,3.08-.87,4.55,1.65-.18,3.2-.31,4.65-.38Zm-3.64,11.09-.91,4.56a65,65,0,0,1,7.7-.34l.47-4.47A64.69,64.69,0,0,0,206.58,225.3Zm-4.26,5c.55-.08,1.1-.16,1.64-.22l.88-4.57-1.45.18C203,227.3,202.66,228.84,202.32,230.27Zm21.24-14.93a39.27,39.27,0,0,0-5.15-.88l.45,4.54A36.78,36.78,0,0,1,224,220C223.83,218.39,223.69,216.85,223.56,215.34Zm-7.74-9.42-.1-4.48a61,61,0,0,0-8.08.16c-.19,1.52-.4,3-.61,4.51A63.82,63.82,0,0,1,215.82,205.92Z"/><path class="cls-23" d="M225.25,181.39c-5.9-1.32-14.08-1.29-19.33,1.41-1.3.66-2.45-1-1.17-1.69,5.79-3,14.69-3,21.17-1.55,1.48.33.81,2.16-.67,1.83Z"/><path class="cls-26" d="M225.25,181.39c-5.9-1.32-14.08-1.29-19.33,1.41a1.2,1.2,0,0,1-1.35-.13c1.24-1,4.1-2.44,10.42-2.67,7.82-.28,10.81.76,11.5,1.06A1.27,1.27,0,0,1,225.25,181.39Z"/><path class="cls-26" d="M213.65,154.7a2.54,2.54,0,1,0,2.53-1.94A2.29,2.29,0,0,0,213.65,154.7Z"/><path class="cls-23" d="M214.5,154.32a1.88,1.88,0,1,0,1.87-1.44A1.69,1.69,0,0,0,214.5,154.32Z"/><path class="cls-27" d="M216.25,153.88a.71.71,0,1,0,.7-.54A.63.63,0,0,0,216.25,153.88Z"/><path class="cls-55" d="M226.19,179.85A43.53,43.53,0,0,0,204.76,181s6.14-8.82,9.85-24.58c0,0,2.39-.9,3.15,1C217.76,157.43,220.81,172.37,226.19,179.85Z"/><path class="cls-56" d="M301.08,200.41s1.1,55.4,10.54,80.77L270,270.74s9.76-33,12.42-68l6.32-5.7Z"/><path class="cls-57" d="M300.22,206.88c.32,15.19,2.64,54.26,9.26,74.25l-37.3-10.35A416.85,416.85,0,0,0,283,207.89C289.66,205.14,297.33,206.29,300.22,206.88Z"/><path class="cls-58" d="M290.65,257l-.93,6.28a74.78,74.78,0,0,1,11.71,1.3l-.65-6.46S294.94,256.6,290.65,257Zm-11.51-10.58,7.94-.43.58-4.78a41.7,41.7,0,0,0-7.77-.17ZM289.75,225l-.43,5.23a76.51,76.51,0,0,1,8.4.63l.27-5.23C294.53,224.38,289.75,225,289.75,225ZM293.66,213l.1-4.64a21.7,21.7,0,0,0-7.77,0l-.42,4.48C286.37,212.67,293.66,213,293.66,213Zm-8.19,12a5.47,5.47,0,0,0-3,.23l-.59,5.38,3.34-.38ZM275.14,269.8l10.45,1.12.46-6.43s-5.69-1-9.85.39Z"/><path class="cls-59" d="M277.46,239.08c0,.11,0,.21,0,.32.49-.08,1-.17,1.48-.23.17-1,.35-2,.52-3.1l0-.13q.26-1.56.51-3.18l-1.37.19v0c-.19,1-.37,2.09-.56,3.11l0,.18C277.82,237.23,277.64,238.16,277.46,239.08ZM274,255.2c.62-.12,1.24-.24,1.84-.34q.63-3,1.31-6.47l-1.68.27h0C275,251,274.51,253.18,274,255.2Z"/><path class="cls-60" d="M304.52,268.34a53.89,53.89,0,0,0-9-1.54l-.11,5.39,10.41,2.62Zm-8-47.31a42.84,42.84,0,0,1,4.25.83c-.11-2.25-.2-4.39-.27-6.38-1.16-.28-2.47-.54-4-.76Zm2.72,33.87a32.16,32.16,0,0,1,4.46,1.36c-.29-2.19-.57-4.41-.82-6.64a35,35,0,0,0-3.73-1.06Zm-13.78-22.63c-1.71.09-3.54.25-5.48.49-.35,2.2-.71,4.33-1.06,6.41,2-.27,3.83-.45,5.58-.56ZM281,247.87l-1.1,6.4a67.7,67.7,0,0,1,9.24-.51l.59-6.28A66.74,66.74,0,0,0,281,247.87Zm-5.13,7,2-.32,1.09-6.42-1.74.27Q276.52,251.84,275.88,254.86Zm25.56-21.06a41,41,0,0,0-6.18-1.22l.53,6.37a39.73,39.73,0,0,1,6.15,1.32C301.76,238.09,301.59,235.92,301.44,233.8Zm-9.25-13.2-.1-6.3a64.34,64.34,0,0,0-9.7.27q-.36,3.21-.75,6.35A65,65,0,0,1,292.19,220.6Z"/><path class="cls-23" d="M303.25,203.55c-7.08-1.83-16.9-1.75-23.22,2.06a1.37,1.37,0,0,1-1.4-2.36c7-4.2,17.66-4.3,25.43-2.28,1.78.46,1,3-.81,2.58Z"/><path class="cls-26" d="M303.25,203.55c-7.08-1.83-16.9-1.75-23.22,2.06a1.26,1.26,0,0,1-1.61-.17c1.48-1.4,4.93-3.44,12.51-3.79,9.4-.43,13,1,13.81,1.43A1.39,1.39,0,0,1,303.25,203.55Z"/><path class="cls-26" d="M289.44,166.11a3,3,0,1,0,3-2.74A2.9,2.9,0,0,0,289.44,166.11Z"/><path class="cls-23" d="M290.47,165.57a2.2,2.2,0,1,0,2.24-2A2.14,2.14,0,0,0,290.47,165.57Z"/><path class="cls-27" d="M292.56,165a.84.84,0,1,0,.85-.77A.81.81,0,0,0,292.56,165Z"/><path class="cls-61" d="M304.39,201.38S293,198,278.65,203.07c0,0,7.41-12.43,11.93-34.57,0,0,2.89-1.29,3.78,1.43C294.36,169.93,298,190.9,304.39,201.38Z"/><path class="cls-62" d="M333.47,236.51s1.39,57.72,12.32,84.17l-47.85-11s11.15-34.4,14.13-70.85l7.24-5.93Z"/><path class="cls-63" d="M332.5,243.25c.41,15.82,3.16,56.53,10.83,77.38L300.4,309.76a398.19,398.19,0,0,0,12.35-65.5C320.35,241.42,329.17,242.62,332.5,243.25Z"/><path class="cls-64" d="M321.61,295.39l-1.06,6.53A94.28,94.28,0,0,1,334,303.31l-.77-6.73S326.55,295,321.61,295.39Zm-13.27-11.05,9.13-.43.67-5a53.63,53.63,0,0,0-8.94-.19Zm12.17-22.21-.49,5.45a95.93,95.93,0,0,1,9.66.68l.3-5.46C326,261.47,320.51,262.13,320.51,262.13ZM325,249.59l.11-4.84a27.71,27.71,0,0,0-8.95,0l-.46,4.68C316.59,249.25,325,249.59,325,249.59ZM315.58,262a6.91,6.91,0,0,0-3.47.24l-.67,5.6,3.84-.38ZM303.8,308.74l12,1.2.51-6.7s-6.55-1.08-11.32.38Z"/><path class="cls-65" d="M306.4,276.74c0,.11,0,.22-.07.33l1.71-.24c.2-1.06.4-2.13.6-3.22,0-.05,0-.09,0-.13.2-1.09.39-2.2.58-3.31-.51.05-1,.12-1.57.19a0,0,0,0,1,0,0c-.2,1.1-.41,2.18-.63,3.25l0,.18C306.8,274.8,306.6,275.78,306.4,276.74Zm-3.9,16.78,2.11-.34q.72-3.15,1.49-6.74l-1.92.27v0C303.6,289.14,303,291.42,302.5,293.52Z"/><path class="cls-66" d="M337.6,307.28a69.67,69.67,0,0,0-10.37-1.63l-.12,5.62,12,2.76ZM328.24,258c1.86.25,3.49.56,4.89.88-.13-2.35-.24-4.58-.32-6.66-1.33-.29-2.84-.57-4.57-.79Zm3.21,35.29a39,39,0,0,1,5.13,1.43q-.51-3.43-.95-6.92a43,43,0,0,0-4.31-1.11Zm-15.9-23.6c-2,.08-4.08.25-6.31.5-.39,2.28-.79,4.51-1.2,6.66q3.4-.4,6.42-.57Zm-5,16.23-1.26,6.67a85.23,85.23,0,0,1,10.62-.51l.66-6.54A85.45,85.45,0,0,0,310.51,285.9Zm-5.9,7.28,2.26-.33,1.24-6.69c-.65.08-1.34.18-2,.28Q305.33,290,304.61,293.18ZM334,271.29a52.32,52.32,0,0,0-7.1-1.28l.61,6.64a49,49,0,0,1,7.09,1.39C334.34,275.77,334.14,273.51,334,271.29ZM323.3,257.52l-.14-6.56a83,83,0,0,0-11.15.25q-.4,3.34-.85,6.62A82.94,82.94,0,0,1,323.3,257.52Z"/><path class="cls-23" d="M336,239.79c-8.13-1.93-19.44-1.86-26.7,2.09-1.79,1-3.38-1.5-1.6-2.46,8-4.36,20.29-4.44,29.24-2.32,2,.48,1.11,3.17-.94,2.69Z"/><path class="cls-26" d="M336,239.79c-8.13-1.93-19.44-1.86-26.7,2.09a1.55,1.55,0,0,1-1.85-.19c1.7-1.45,5.66-3.57,14.38-3.92,10.81-.42,14.94,1.09,15.89,1.52A1.67,1.67,0,0,1,336,239.79Z"/><path class="cls-26" d="M320,200.75a3.46,3.46,0,1,0,3.48-2.85A3.19,3.19,0,0,0,320,200.75Z"/><path class="cls-23" d="M321.19,200.19a2.56,2.56,0,1,0,2.57-2.11A2.36,2.36,0,0,0,321.19,200.19Z"/><path class="cls-27" d="M323.59,199.54a1,1,0,0,0,1.92,0,1,1,0,0,0-1.92,0Z"/><path class="cls-67" d="M337.28,237.52s-13.06-3.55-29.6,1.71c0,0,8.49-12.93,13.64-36,0,0,3.32-1.33,4.35,1.5C325.67,204.74,329.85,226.6,337.28,237.52Z"/><path class="cls-68" d="M317.76,249.55s.23,45.78,8.32,67.14l-34.83-7.94s8.33-27.82,10.59-57.28l5.4-4.8Z"/><path class="cls-69" d="M317,255c.28,12.78,1.54,44.82,7.22,61.65l-31.18-7.86a347.14,347.14,0,0,0,9.27-53C308,253.53,314.56,254.5,317,255Z"/><path class="cls-70" d="M308.86,297.15l-.79,5.28a64.79,64.79,0,0,1,10,1.1l-.56-5.43A33,33,0,0,0,308.86,297.15ZM299,288.24l6.78-.36.5-4a37.09,37.09,0,0,0-6.65-.14Zm9.07-18-.37,4.41a65.25,65.25,0,0,1,7.18.53l.23-4.41A17.82,17.82,0,0,0,308.09,270.27Zm3.33-10.14.09-3.91a18.76,18.76,0,0,0-6.65,0l-.35,3.77C305.19,259.87,311.42,260.13,311.42,260.13Zm-7,10.06a4.77,4.77,0,0,0-2.58.2l-.5,4.53,2.85-.32ZM295.6,308l8.94,1,.38-5.41s-4.86-.86-8.42.32Z"/><path class="cls-71" d="M297.58,282.1a2.56,2.56,0,0,0-.05.27l1.27-.2c.15-.85.3-1.72.44-2.61,0,0,0-.07,0-.1.15-.88.3-1.77.44-2.68l-1.17.16s0,0,0,0c-.16.88-.32,1.76-.48,2.62a.77.77,0,0,1,0,.15C297.88,280.54,297.73,281.32,297.58,282.1Zm-2.92,13.57c.52-.1,1-.2,1.56-.28q.55-2.55,1.12-5.45l-1.42.22h0Q295.27,293.11,294.66,295.67Z"/><path class="cls-72" d="M320.73,306.74a48.18,48.18,0,0,0-7.71-1.3l-.09,4.54,8.91,2.21Zm-6.89-39.83a36.49,36.49,0,0,1,3.64.7c-.09-1.9-.17-3.7-.24-5.38-1-.23-2.11-.45-3.39-.63Zm2.34,28.52a25.68,25.68,0,0,1,3.81,1.14c-.25-1.84-.48-3.71-.69-5.59a30.93,30.93,0,0,0-3.2-.89ZM304.4,276.37c-1.47.07-3,.21-4.7.41q-.43,2.78-.9,5.39c1.68-.23,3.28-.38,4.77-.47Zm-3.78,13.13-.95,5.39a58.48,58.48,0,0,1,7.91-.43l.49-5.28A56.79,56.79,0,0,0,300.62,289.5Zm-4.4,5.89c.58-.1,1.14-.2,1.69-.27l.93-5.41c-.49.06-1,.15-1.5.23Q296.77,292.84,296.22,295.39Zm21.86-17.73a35.27,35.27,0,0,0-5.28-1l.45,5.37a33,33,0,0,1,5.26,1.11C318.35,281.27,318.21,279.45,318.08,277.66Zm-7.91-11.11-.09-5.31a57.19,57.19,0,0,0-8.3.22c-.2,1.8-.41,3.59-.64,5.35A55.88,55.88,0,0,1,310.17,266.55Z"/><path class="cls-23" d="M319.62,252.19c-6.05-1.54-14.45-1.47-19.86,1.73a1.16,1.16,0,0,1-1.19-2c6-3.53,15.1-3.61,21.74-1.91,1.53.39.83,2.57-.69,2.17Z"/><path class="cls-26" d="M319.62,252.19c-6.05-1.54-14.45-1.47-19.86,1.73a1.08,1.08,0,0,1-1.38-.15c1.27-1.17,4.22-2.89,10.71-3.18,8-.36,11.1.86,11.81,1.2A1.18,1.18,0,0,1,319.62,252.19Z"/><path class="cls-26" d="M307.8,220.67a2.55,2.55,0,1,0,2.6-2.31A2.46,2.46,0,0,0,307.8,220.67Z"/><path class="cls-23" d="M308.68,220.22a1.89,1.89,0,1,0,1.92-1.71A1.82,1.82,0,0,0,308.68,220.22Z"/><path class="cls-27" d="M310.47,219.69a.72.72,0,0,0,1.43,0,.72.72,0,0,0-1.43,0Z"/><path class="cls-73" d="M320.59,250.37s-9.7-2.86-22,1.41c0,0,6.33-10.46,10.19-29.1,0,0,2.48-1.08,3.24,1.2C312,223.88,315.09,241.54,320.59,250.37Z"/><path class="cls-74" d="M291.91,227s.06,37.94,5.94,51.36l-26.37-.49s7.34-31.22,8.93-49.7l3.89-3Z"/><path class="cls-75" d="M290.74,230.93c.23,8,1.65,36.78,5.79,47.36l-23.72-.43s6.78-29.07,8.51-46.5A17.62,17.62,0,0,1,290.74,230.93Z"/><path class="cls-76" d="M285.37,266l-.56,3.31a53.9,53.9,0,0,1,7.24.71l-.42-3.41A27.38,27.38,0,0,0,285.37,266Zm-7.14-5.61,4.91-.21.35-2.53a30.49,30.49,0,0,0-4.8-.1Zm6.52-11.25-.25,2.76c1.67,0,5.19.35,5.19.35l.15-2.77A14.65,14.65,0,0,0,284.75,249.16Zm2.4-6.36.05-2.45a15.54,15.54,0,0,0-4.8,0l-.25,2.37C282.64,242.62,287.15,242.8,287.15,242.8Zm-5,6.3a3.94,3.94,0,0,0-1.87.12l-.35,2.84,2.06-.2Zm-7.48,28.24,7.64-3.94.27-3.4a17.1,17.1,0,0,0-6.08.18Z"/><path class="cls-77" d="M277.19,256.55a1.36,1.36,0,0,0,0,.17l.92-.12c.1-.53.21-1.08.31-1.63a.64.64,0,0,1,0-.07c.1-.55.21-1.11.31-1.68l-.84.1v0c-.11.55-.22,1.1-.34,1.64a.15.15,0,0,1,0,.09C277.4,255.57,277.29,256.07,277.19,256.55Zm-2.09,8.51,1.13-.17c.26-1.06.53-2.21.8-3.42l-1,.14h0C275.69,262.84,275.39,264,275.1,265.06Z"/><path class="cls-78" d="M294,272.06a40.29,40.29,0,0,0-5.58-.83l-.06,2.85,6.44,1.4Zm-5.06-25c1,.12,1.87.28,2.63.44-.07-1.18-.14-2.32-.18-3.37-.71-.15-1.53-.29-2.46-.41Zm1.74,17.9a21.34,21.34,0,0,1,2.76.72q-.27-1.74-.51-3.51c-.62-.18-1.38-.38-2.32-.56Zm-8.55-12c-1.06.05-2.2.13-3.39.25-.21,1.16-.43,2.29-.64,3.38,1.21-.14,2.36-.23,3.44-.28Zm-2.7,8.23-.68,3.38a51.58,51.58,0,0,1,5.71-.25l.35-3.31A46.73,46.73,0,0,0,279.4,261.2Zm-3.17,3.69c.42-.06.83-.12,1.22-.16l.66-3.4-1.08.14C276.76,262.68,276.49,263.83,276.23,264.89ZM292,253.81a28.77,28.77,0,0,0-3.82-.66l.34,3.37a28,28,0,0,1,3.81.71C292.2,256.08,292.09,254.93,292,253.81Zm-5.74-7-.07-3.33a46.26,46.26,0,0,0-6,.13c-.14,1.13-.29,2.24-.45,3.35A46.2,46.2,0,0,1,286.25,246.82Z"/><path class="cls-23" d="M293.25,228.62c-4.37-1-10.45-1-14.35,1-1,.5-1.81-.76-.86-1.25,4.3-2.2,10.9-2.23,15.71-1.15,1.1.25.6,1.61-.5,1.36Z"/><path class="cls-26" d="M293.25,228.62c-4.37-1-10.45-1-14.35,1a.87.87,0,0,1-1-.09c.91-.73,3-1.81,7.73-2,5.8-.21,8,.56,8.53.78A.91.91,0,0,1,293.25,228.62Z"/><path class="cls-26" d="M284.65,208.82a1.88,1.88,0,1,0,1.87-1.45A1.68,1.68,0,0,0,284.65,208.82Z"/><path class="cls-23" d="M285.28,208.53a1.39,1.39,0,1,0,1.38-1.06A1.24,1.24,0,0,0,285.28,208.53Z"/><path class="cls-27" d="M286.57,208.21a.53.53,0,1,0,.53-.41A.49.49,0,0,0,286.57,208.21Z"/><path class="cls-79" d="M294,227.47a32.34,32.34,0,0,0-15.9.85s4.55-6.55,7.31-18.24c0,0,1.77-.68,2.33.76C287.69,210.84,290,221.93,294,227.47Z"/><path class="cls-80" d="M258.75,168c-1.56-1.08-3.06-1.91-2.91-3.69.13-1.56,1.72-2.59,2.87-3.68-4.32-.32-9.15-1.6-13.3-.5-4.71,1.23-8.18,3.29-13.27,1.73,2.54,3.05,7.32,3.81,10.7,3.52-3,1.24-6.92,3.15-10.41,2.34,4.56,2.68,7.88,2.29,12.83,1.31,4.2-.83,9.06-1.62,13.29-.43Z"/><polygon class="cls-23" points="258.96 175.67 259.53 158.16 258.22 157.98 257.82 176.25 258.96 175.67"/><path class="cls-81" d="M265.66,201.25s.08,50.1,7.86,67.83l-34.83-.65s9.7-41.22,11.79-65.63l5.13-4Z"/><path class="cls-82" d="M264.12,206.49c.3,10.59,2.19,48.59,7.65,62.55l-31.33-.57s8.95-38.39,11.24-61.41A23.32,23.32,0,0,1,264.12,206.49Z"/><path class="cls-83" d="M257,252.84l-.74,4.37a71.65,71.65,0,0,1,9.56.94l-.55-4.5A35.94,35.94,0,0,0,257,252.84Zm-9.42-7.42,6.48-.27.46-3.34a40.19,40.19,0,0,0-6.34-.14Zm8.61-14.86-.34,3.65c2.2-.05,6.85.46,6.85.46l.21-3.65A19.41,19.41,0,0,0,256.22,230.56Zm3.16-8.39.07-3.24a20.6,20.6,0,0,0-6.35,0l-.32,3.13C253.43,221.94,259.38,222.17,259.38,222.17Zm-6.65,8.32a5.2,5.2,0,0,0-2.47.15l-.47,3.75,2.72-.25Zm-9.88,37.3,10.09-5.22.35-4.48a22.45,22.45,0,0,0-8,.24Z"/><path class="cls-84" d="M246.22,240.34c0,.07,0,.14,0,.22.4-.05.81-.12,1.2-.16q.23-1.07.42-2.16s0-.06,0-.09c.14-.73.28-1.47.41-2.21l-1.11.12v0l-.45,2.17a.5.5,0,0,0,0,.12C246.5,239,246.36,239.69,246.22,240.34Zm-2.75,11.23,1.5-.23c.34-1.4.69-2.91,1.05-4.51l-1.36.18h0C244.25,248.64,243.85,250.16,243.47,251.57Z"/><path class="cls-85" d="M268.39,260.82a52.35,52.35,0,0,0-7.36-1.1l-.09,3.76,8.51,1.85Zm-6.69-33c1.33.17,2.48.38,3.48.59-.1-1.57-.18-3.06-.24-4.45-.94-.2-2-.39-3.24-.54ZM264,251.43a29,29,0,0,1,3.64,1c-.24-1.53-.47-3.08-.68-4.64-.81-.24-1.81-.5-3.05-.74Zm-11.3-15.82c-1.4,0-2.9.16-4.48.33-.27,1.52-.55,3-.85,4.46,1.61-.18,3.13-.31,4.56-.38Zm-3.56,10.86-.9,4.47a64.43,64.43,0,0,1,7.54-.33l.47-4.38A64.17,64.17,0,0,0,249.15,246.47ZM245,251.34l1.61-.22.86-4.48-1.42.19C245.66,248.43,245.31,249.94,245,251.34Zm20.81-14.63a39.49,39.49,0,0,0-5-.86l.45,4.44a36.76,36.76,0,0,1,5,.94C266,239.71,265.9,238.19,265.78,236.71Zm-7.58-9.23-.1-4.39a62,62,0,0,0-7.92.16c-.19,1.49-.39,3-.6,4.42A61.4,61.4,0,0,1,258.2,227.48Z"/><path class="cls-23" d="M267.44,203.45c-5.78-1.3-13.8-1.27-18.95,1.37-1.26.65-2.39-1-1.14-1.64,5.67-2.92,14.4-3,20.75-1.53,1.44.32.79,2.12-.66,1.8Z"/><path class="cls-26" d="M267.44,203.45c-5.78-1.3-13.8-1.27-18.95,1.37a1.14,1.14,0,0,1-1.31-.12c1.21-1,4-2.39,10.21-2.61,7.66-.28,10.59.74,11.26,1A1.21,1.21,0,0,1,267.44,203.45Z"/><path class="cls-26" d="M256.08,177.29a2.48,2.48,0,0,0,4.85.11,2.48,2.48,0,0,0-4.85-.11Z"/><path class="cls-23" d="M256.91,176.92a1.84,1.84,0,1,0,1.83-1.41A1.65,1.65,0,0,0,256.91,176.92Z"/><path class="cls-27" d="M258.62,176.49a.7.7,0,0,0,1.36,0,.63.63,0,0,0-.67-.57A.62.62,0,0,0,258.62,176.49Z"/><path class="cls-86" d="M268.37,201.93a42.78,42.78,0,0,0-21,1.12s6-8.65,9.65-24.09c0,0,2.35-.89,3.09,1C260.1,180,263.08,194.61,268.37,201.93Z"/><path class="cls-26" d="M256.31,157.67a2.49,2.49,0,1,0,2.47-1.91A2.24,2.24,0,0,0,256.31,157.67Z"/><path class="cls-23" d="M257.15,157.3a1.65,1.65,0,0,0,1.76,1.49,1.67,1.67,0,0,0,1.83-1.41,1.84,1.84,0,0,0-3.59-.08Z"/><path class="cls-27" d="M258.86,156.86a.69.69,0,1,0,.69-.53A.62.62,0,0,0,258.86,156.86Z"/><path class="cls-87" d="M234,199.47c-1.18-.82-2.32-1.45-2.21-2.79.1-1.18,1.31-2,2.18-2.79-3.27-.25-6.93-1.21-10.07-.39-3.57.94-6.19,2.5-10,1.31,1.93,2.32,5.55,2.89,8.1,2.68-2.3.93-5.24,2.38-7.88,1.77,3.46,2,6,1.73,9.72,1,3.18-.63,6.86-1.23,10.06-.33Z"/><polygon class="cls-23" points="234.17 205.3 234.6 192.05 233.61 191.91 233.31 205.74 234.17 205.3"/><path class="cls-88" d="M239.24,224.67s.06,38,5.95,51.37l-26.37-.49s7.34-31.22,8.93-49.7l3.89-3Z"/><path class="cls-89" d="M238.08,228.65c.23,8,1.65,36.78,5.79,47.36l-23.72-.43s6.77-29.07,8.51-46.51A17.59,17.59,0,0,1,238.08,228.65Z"/><path class="cls-90" d="M232.71,263.74l-.56,3.31a53.9,53.9,0,0,1,7.24.71l-.42-3.41A27.38,27.38,0,0,0,232.71,263.74Zm-7.14-5.61,4.91-.21.35-2.53a30.49,30.49,0,0,0-4.8-.1Zm6.53-11.26-.26,2.77c1.67,0,5.19.35,5.19.35l.16-2.77A14.77,14.77,0,0,0,232.1,246.87Zm2.39-6.35,0-2.46a15.75,15.75,0,0,0-4.8,0l-.25,2.37C230,240.34,234.49,240.52,234.49,240.52Zm-5,6.3a3.85,3.85,0,0,0-1.87.11l-.35,2.84,2.06-.19ZM222,275.06l7.64-3.95.27-3.4a17.26,17.26,0,0,0-6.09.19Z"/><path class="cls-91" d="M224.53,254.27a.85.85,0,0,1,0,.17l.92-.12c.1-.54.21-1.08.31-1.63a.64.64,0,0,1,0-.07c.1-.55.2-1.11.31-1.68l-.85.1v0l-.33,1.64,0,.09C224.74,253.29,224.63,253.79,224.53,254.27Zm-2.09,8.51,1.13-.17q.39-1.61.81-3.42l-1,.14h0C223,260.56,222.73,261.71,222.44,262.78Z"/><path class="cls-92" d="M241.31,269.78a40.25,40.25,0,0,0-5.57-.83l-.07,2.84,6.45,1.41Zm-5.06-25c1,.13,1.88.29,2.62.45-.07-1.19-.12-2.32-.17-3.37-.72-.15-1.53-.29-2.45-.41Zm1.75,17.9a21.28,21.28,0,0,1,2.75.73c-.18-1.16-.36-2.33-.51-3.51a21.91,21.91,0,0,0-2.32-.57Zm-8.56-12c-1.06,0-2.2.13-3.39.25-.21,1.16-.43,2.29-.64,3.38,1.21-.14,2.36-.23,3.44-.29Zm-2.7,8.23-.68,3.38a49.34,49.34,0,0,1,5.71-.25l.36-3.32A49.4,49.4,0,0,0,226.74,258.92Zm-3.17,3.69,1.23-.17.65-3.39-1.07.14Q224,261,223.57,262.61Zm15.76-11.08a28.77,28.77,0,0,0-3.82-.66l.34,3.37a27.51,27.51,0,0,1,3.8.71C239.53,253.79,239.43,252.65,239.33,251.53Zm-5.74-7-.07-3.33a48,48,0,0,0-6,.12c-.14,1.13-.29,2.25-.45,3.35A46.05,46.05,0,0,1,233.59,244.54Z"/><path class="cls-23" d="M240.59,226.34c-4.38-1-10.44-1-14.35,1-1,.49-1.81-.76-.86-1.25,4.3-2.2,10.9-2.23,15.71-1.15,1.1.24.6,1.61-.5,1.36Z"/><path class="cls-26" d="M240.59,226.34c-4.38-1-10.44-1-14.35,1a.87.87,0,0,1-1-.09c.91-.74,3-1.81,7.73-2,5.8-.21,8,.56,8.53.78A.93.93,0,0,1,240.59,226.34Z"/><path class="cls-26" d="M232,206.53a1.88,1.88,0,1,0,1.87-1.44A1.69,1.69,0,0,0,232,206.53Z"/><path class="cls-23" d="M232.62,206.25a1.39,1.39,0,0,0,2.72.06,1.39,1.39,0,0,0-2.72-.06Z"/><path class="cls-27" d="M233.92,205.92a.52.52,0,0,0,1,0,.47.47,0,0,0-.5-.43A.46.46,0,0,0,233.92,205.92Z"/><path class="cls-93" d="M241.29,225.19a32.4,32.4,0,0,0-15.9.84s4.55-6.54,7.3-18.23c0,0,1.79-.68,2.34.76C235,208.56,237.29,219.65,241.29,225.19Z"/><path class="cls-26" d="M232.17,191.68a1.88,1.88,0,1,0,1.87-1.45A1.69,1.69,0,0,0,232.17,191.68Z"/><path class="cls-23" d="M232.8,191.39a1.39,1.39,0,1,0,1.38-1.07A1.25,1.25,0,0,0,232.8,191.39Z"/><path class="cls-27" d="M234.09,191.06c0,.23.23.42.51.43a.47.47,0,0,0,.52-.4.48.48,0,0,0-.5-.43A.49.49,0,0,0,234.09,191.06Z"/><path class="cls-94" d="M187.9,267.51s.34,37.54,8,55.07L163,316s7.79-22.79,9.85-46.93l5.08-3.92Z"/><path class="cls-95" d="M187.22,272c.3,10.48,1.57,36.75,7,50.56L164.74,316a250.08,250.08,0,0,0,8.62-43.38C178.69,270.75,184.88,271.56,187.22,272Z"/><path class="cls-96" d="M179.62,306.51l-.73,4.33a71.12,71.12,0,0,1,9.46.93l-.55-4.46A36.05,36.05,0,0,0,179.62,306.51Zm-9.32-7.33,6.41-.28.46-3.29a39.43,39.43,0,0,0-6.28-.14Zm8.51-14.7-.33,3.61c2.18-.06,6.78.45,6.78.45l.21-3.61A19.22,19.22,0,0,0,178.81,284.48Zm3.13-8.31L182,273a20.5,20.5,0,0,0-6.28,0l-.32,3.09C176.06,275.94,181.94,276.17,181.94,276.17Zm-6.58,8.23a5,5,0,0,0-2.44.16l-.46,3.71,2.69-.26Zm-8.23,30.94,8.44.81.35-4.44A22.21,22.21,0,0,0,168,312Z"/><path class="cls-97" d="M168.93,294.15c0,.07,0,.14-.05.21l1.2-.15c.13-.7.28-1.42.41-2.14a.29.29,0,0,0,0-.09c.14-.72.27-1.45.41-2.19l-1.1.13v0c-.15.73-.29,1.44-.44,2.15a.53.53,0,0,1,0,.12C169.21,292.86,169.07,293.51,168.93,294.15Zm-2.72,11.11,1.47-.23c.34-1.38.69-2.88,1-4.46l-1.35.18s0,0,0,0C167,302.36,166.58,303.87,166.21,305.26Z"/><path class="cls-98" d="M190.85,314.41a50.23,50.23,0,0,0-7.28-1.09l-.08,3.72,8.42,1.84Zm-6.61-32.68c1.31.17,2.45.37,3.44.59-.1-1.56-.17-3-.24-4.41-.93-.19-2-.38-3.2-.53Zm2.28,23.39a26.72,26.72,0,0,1,3.6.95c-.23-1.51-.46-3-.67-4.59-.8-.24-1.79-.5-3-.74Zm-11.17-15.65c-1.39,0-2.87.16-4.43.32-.28,1.51-.56,3-.84,4.42,1.59-.18,3.09-.31,4.51-.37Zm-3.53,10.75-.89,4.41a65.14,65.14,0,0,1,7.47-.32l.46-4.34A63.14,63.14,0,0,0,171.82,300.22ZM167.68,305l1.59-.21.87-4.43-1.41.18C168.37,302.15,168,303.65,167.68,305Zm20.59-14.47a38.34,38.34,0,0,0-5-.86l.44,4.4a36.52,36.52,0,0,1,5,.93C188.54,293.52,188.4,292,188.27,290.56Zm-7.5-9.13-.1-4.35a60.67,60.67,0,0,0-7.83.16c-.18,1.47-.38,2.93-.59,4.38A60,60,0,0,1,180.77,281.43Z"/><path class="cls-23" d="M189.65,269.69c-5.71-1.29-13.65-1.25-18.74,1.36-1.25.64-2.37-1-1.13-1.63,5.62-2.88,14.24-2.92,20.53-1.51,1.43.32.78,2.1-.66,1.78Z"/><path class="cls-26" d="M189.65,269.69c-5.71-1.29-13.65-1.25-18.74,1.36a1.16,1.16,0,0,1-1.3-.12c1.2-1,4-2.37,10.1-2.59,7.58-.27,10.48.73,11.15,1A1.22,1.22,0,0,1,189.65,269.69Z"/><path class="cls-26" d="M178.41,243.81a2.46,2.46,0,1,0,2.45-1.88A2.21,2.21,0,0,0,178.41,243.81Z"/><path class="cls-23" d="M179.24,243.44a1.82,1.82,0,1,0,1.81-1.39A1.64,1.64,0,0,0,179.24,243.44Z"/><path class="cls-27" d="M180.93,243a.69.69,0,1,0,.69-.53A.63.63,0,0,0,180.93,243Z"/><path class="cls-99" d="M190.57,268.19a42.27,42.27,0,0,0-20.78,1.1s6-8.55,9.55-23.83c0,0,2.32-.88,3.06,1C182.4,246.46,185.35,260.94,190.57,268.19Z"/><path class="cls-100" d="M203.65,266.84c2-.6,3.93-1.14,5.87-1.64l-.26,4.28,3.39.53.62-5.72c1.46-.33,2.92-.65,4.36-.94l-.26,4.36,3.39.53.6-5.57c1.78-.31,3.53-.57,5.25-.8l-.29,5,3.39.53.64-6c1.37-.15,2.72-.27,4.07-.37l-.28,4.74,3.38.53.59-5.5c1.83-.09,3.62-.14,5.39-.15l-.29,4.85,3.39.54.58-5.38c2,0,4,.12,5.92.24l-.24,4.13,3.39.53.46-4.37a127.28,127.28,0,0,1,24.08,4.52l-.28,4.71,3.39.54.45-4.16c1.62.52,3.15,1.06,4.59,1.59l-.27,4.5,3.4.53.39-3.66q2,.81,3.69,1.59l-.34,5.69,3.39.54.49-4.54c3,1.54,4.65,2.59,4.65,2.59.71,19.68,10.52,38.19,10.52,38.19L192.34,305C203.48,287.64,203.65,266.84,203.65,266.84Z"/><path class="cls-101" d="M203,274.73a65.17,65.17,0,0,0,.7-7.89c2-.6,3.93-1.14,5.87-1.64l-.26,4.28,3.39.53.62-5.72c1.46-.33,2.92-.65,4.36-.94l-.26,4.36,3.39.53.6-5.57c1.78-.31,3.53-.57,5.25-.8l-.29,5,3.39.53.64-6c1.37-.15,2.72-.27,4.07-.37l-.28,4.74,3.38.53.59-5.5c1.83-.09,3.62-.14,5.39-.15l-.29,4.85,3.39.54.58-5.38c2,0,4,.12,5.92.24l-.24,4.13,3.39.53.46-4.37a127.28,127.28,0,0,1,24.08,4.52l-.28,4.71,3.39.54.45-4.16c1.62.52,3.15,1.06,4.59,1.59l-.27,4.5,3.4.53.39-3.66q2,.81,3.69,1.59l-.34,5.69,3.39.54.49-4.54c3,1.54,4.65,2.59,4.65,2.59a73.57,73.57,0,0,0,.84,8.48c-6.17-3.95-26-14.89-57.37-15.19C224.55,268.71,210.44,272.07,203,274.73Z"/><path class="cls-102" d="M302,294.18l5.66,1.21c-.7-2.47-1.36-5.09-1.9-7.82l-5.08-1.14Zm-104.6,1.06,4.7-.65,2.31-8.53-4,.56A74.17,74.17,0,0,1,197.43,295.24Zm10.48-12.53-1.22,7.35,13.4-.57-.28-6.52Zm13.78,1.67,7.66-.18-.12-4.46h-7.86l0,.69ZM207.76,280l12.33-.07-.75-4.48-11.26-.59ZM237.09,290l-.53,4.79,9.13.2-.33-4.47ZM291.41,294l-.32,5.14,13.13,2-1-5.17Zm3.09-5.42,4.68-.07-.28-6.53-5.08-1Zm-57-16.16-.57,6.51,13-.23.56-6.34Zm-6.4,20.44-12.31-.6.47,7.38,10.63.4Zm70.8,9.08-7.23-.33.5,6.7,8.26,1Zm7.34-1.65c-1.55-.23-3.47-.49-3.47-.49l1.32,7.57,5.27,1.08C311.39,306.2,310.3,303.43,309.21,300.24Z"/><path class="cls-103" d="M248.83,300.52l7.19,7.93c.87-.44,6.61-4,7.5-5.79s2.15-20.76,3.06-23.48c.72-2.16-.86-12.63-1.56-16.94q-3.42-.54-7.1-.91C259,271.36,248.83,300.52,248.83,300.52ZM267,271.87c-.64,3.42,7.69,24.17,7.94,26s7.69,11.37,7.69,11.37l7.14-2.59s-6.37-20.58-6.84-35.83l-2.44-.39.28-4.71c-3.56-1-7.5-2-11.76-2.8C268.16,266.54,267.32,270.27,267,271.87Z"/><path class="cls-104" d="M215,233.18s.09,54.83,8.59,74.22l-38.1-.71s10.61-45.1,12.89-71.81l5.62-4.33Z"/><path class="cls-105" d="M213.32,238.92c.33,11.59,2.4,53.16,8.37,68.44l-34.28-.63s9.8-42,12.3-67.19A25.48,25.48,0,0,1,213.32,238.92Z"/><path class="cls-106" d="M205.57,289.63l-.82,4.79a79.28,79.28,0,0,1,10.47,1l-.61-4.93A39.53,39.53,0,0,0,205.57,289.63Zm-10.31-8.11,7.09-.3.5-3.65a43.1,43.1,0,0,0-6.94-.15Zm9.42-16.26-.37,4c2.41-.06,7.5.51,7.5.51l.23-4A21.37,21.37,0,0,0,204.68,265.26Zm3.45-9.18.08-3.55a22.65,22.65,0,0,0-6.94,0l-.36,3.42C201.62,255.82,208.13,256.08,208.13,256.08Zm-7.27,9.1a5.68,5.68,0,0,0-2.7.17l-.52,4.1,3-.27ZM190.05,306l11-5.71.38-4.9s-5.08-.8-8.79.26Z"/><path class="cls-107" d="M193.74,276c0,.08,0,.17-.05.24L195,276c.15-.77.31-1.56.46-2.36,0,0,0-.06,0-.1.15-.79.3-1.6.45-2.42l-1.22.14v0c-.16.8-.32,1.59-.49,2.37l0,.13C194.05,274.54,193.9,275.25,193.74,276Zm-3,12.3c.56-.09,1.1-.18,1.64-.25.37-1.54.76-3.19,1.15-4.94-.5.06-1,.12-1.49.2,0,0,0,0,0,0Q191.36,285.93,190.73,288.25Z"/><path class="cls-108" d="M218,298.36a57.58,57.58,0,0,0-8.05-1.2l-.09,4.11,9.3,2Zm-7.31-36.13c1.45.18,2.71.41,3.8.65-.11-1.72-.19-3.36-.26-4.88-1-.22-2.21-.42-3.55-.59Zm2.52,25.86a31.88,31.88,0,0,1,4,1.05c-.27-1.67-.52-3.37-.75-5.07-.89-.27-2-.55-3.34-.82Zm-12.36-17.31c-1.53.06-3.17.18-4.9.36-.3,1.67-.61,3.3-.93,4.88,1.77-.2,3.42-.33,5-.41Zm-3.9,11.89-1,4.88a72.78,72.78,0,0,1,8.26-.36l.5-4.79A69.56,69.56,0,0,0,196.94,282.67ZM192.37,288l1.75-.24,1-4.9-1.56.2C193.13,284.81,192.74,286.46,192.37,288Zm22.76-16a40.9,40.9,0,0,0-5.51-.95l.48,4.87a40.13,40.13,0,0,1,5.5,1C215.43,275.26,215.27,273.61,215.13,272Zm-8.29-10.1-.11-4.81a66.62,66.62,0,0,0-8.66.18c-.2,1.63-.42,3.24-.65,4.84A67,67,0,0,1,206.84,261.89Z"/><path class="cls-23" d="M217,235.59c-6.32-1.42-15.1-1.38-20.73,1.51-1.38.71-2.62-1.1-1.24-1.81,6.21-3.18,15.75-3.23,22.69-1.67,1.59.36.87,2.33-.72,2Z"/><path class="cls-26" d="M217,235.59c-6.32-1.42-15.1-1.38-20.73,1.51a1.26,1.26,0,0,1-1.44-.14c1.33-1.06,4.4-2.61,11.17-2.86,8.39-.3,11.6.81,12.33,1.13A1.33,1.33,0,0,1,217,235.59Z"/><path class="cls-26" d="M204.52,207a2.72,2.72,0,1,0,2.7-2.09A2.44,2.44,0,0,0,204.52,207Z"/><path class="cls-23" d="M205.43,206.57a2,2,0,1,0,2-1.55A1.8,1.8,0,0,0,205.43,206.57Z"/><path class="cls-27" d="M207.3,206.09a.76.76,0,1,0,.76-.58A.69.69,0,0,0,207.3,206.09Z"/><path class="cls-109" d="M218,233.94a46.69,46.69,0,0,0-23,1.21s6.59-9.46,10.57-26.35c0,0,2.57-1,3.37,1.1C208.92,209.9,212.19,225.92,218,233.94Z"/><path class="cls-110" d="M279,247.89s.37,41.51,8.88,60.9l-36.4-7.3s8.63-25.2,10.9-51.9l5.62-4.34Z"/><path class="cls-111" d="M278.27,252.83c.33,11.59,1.74,40.64,7.72,55.92l-32.58-7.22a276.74,276.74,0,0,0,9.53-48C268.83,251.47,275.68,252.37,278.27,252.83Z"/><path class="cls-112" d="M269.87,291l-.82,4.78a78.45,78.45,0,0,1,10.47,1l-.61-4.93A39.53,39.53,0,0,0,269.87,291Zm-10.32-8.12,7.1-.3.5-3.65a43.1,43.1,0,0,0-6.94-.15ZM269,266.65l-.37,4c2.41-.07,7.49.5,7.49.5l.23-4A21.16,21.16,0,0,0,269,266.65Zm3.45-9.18.08-3.55a22.65,22.65,0,0,0-6.94,0l-.36,3.42C265.92,257.21,272.43,257.47,272.43,257.47Zm-7.28,9.1a5.65,5.65,0,0,0-2.69.17l-.52,4.11,3-.28Zm-9.1,34.22,9.33.88.39-4.9s-5.08-.8-8.79.27Z"/><path class="cls-113" d="M258,277.35l-.06.24,1.33-.18c.16-.77.31-1.56.46-2.36,0,0,0-.06,0-.09l.45-2.43-1.22.14a0,0,0,0,1,0,0c-.15.8-.32,1.59-.48,2.37l0,.13C258.35,275.93,258.19,276.64,258,277.35Zm-3,12.29c.55-.09,1.1-.18,1.63-.25q.57-2.31,1.16-4.94c-.5.06-1,.12-1.5.2h0C255.88,286.43,255.44,288.09,255,289.64Z"/><path class="cls-114" d="M282.28,299.75a57.54,57.54,0,0,0-8-1.2l-.09,4.12,9.31,2ZM275,263.62c1.45.18,2.72.41,3.8.65-.1-1.72-.18-3.36-.25-4.88-1-.21-2.21-.42-3.55-.59Zm2.53,25.86a31.88,31.88,0,0,1,4,1c-.27-1.67-.52-3.37-.75-5.07-.88-.27-2-.55-3.34-.82Zm-12.36-17.31c-1.53.06-3.17.18-4.9.36-.3,1.67-.61,3.31-.93,4.88,1.76-.2,3.42-.33,5-.41Zm-3.9,11.89-1,4.88a72.71,72.71,0,0,1,8.25-.36l.51-4.79A69.48,69.48,0,0,0,261.24,284.06Zm-4.58,5.33,1.77-.24.94-4.9-1.55.2Q257.24,287.08,256.66,289.39Zm22.77-16a41.08,41.08,0,0,0-5.52-.95l.49,4.87a40.43,40.43,0,0,1,5.5,1C279.73,276.65,279.57,275,279.43,273.38Zm-8.29-10.1-.11-4.81a66.77,66.77,0,0,0-8.67.18c-.2,1.63-.41,3.25-.64,4.84A67,67,0,0,1,271.14,263.28Z"/><path class="cls-23" d="M281,250.3c-6.32-1.43-15.09-1.39-20.73,1.5-1.38.71-2.62-1.1-1.24-1.8,6.2-3.19,15.75-3.23,22.69-1.67,1.59.35.87,2.32-.72,2Z"/><path class="cls-26" d="M281,250.3c-6.32-1.43-15.09-1.39-20.73,1.5a1.26,1.26,0,0,1-1.44-.14c1.33-1,4.4-2.61,11.17-2.85,8.39-.3,11.6.81,12.34,1.13A1.38,1.38,0,0,1,281,250.3Z"/><path class="cls-26" d="M268.53,221.68a2.72,2.72,0,1,0,2.7-2.08A2.44,2.44,0,0,0,268.53,221.68Z"/><path class="cls-23" d="M269.44,221.27a2,2,0,1,0,2-1.54A1.81,1.81,0,0,0,269.44,221.27Z"/><path class="cls-27" d="M271.31,220.8a.69.69,0,0,0,.73.61.61.61,0,1,0,0-1.2A.7.7,0,0,0,271.31,220.8Z"/><path class="cls-115" d="M282,248.64a46.77,46.77,0,0,0-23,1.22s6.59-9.46,10.57-26.36c0,0,2.57-1,3.37,1.11C272.93,224.61,276.2,240.63,282,248.64Z"/><path class="cls-116" d="M477,361.09S335.67,285.21,226.64,291s-111,67.23-207,90.28,189.8,70.12,192.83,70.12S367,431.21,371,429.29Z"/><path class="cls-117" d="M456.82,365.47s-125.9-74.92-229.17-69.16-103,65.32-193.84,88.37,174.68,72,177.55,72,146.3-20.18,150.12-22.1Z"/></svg>