<svg id="Layer_1" data-name="Layer 1" xmlns="http://www.w3.org/2000/svg" viewBox="0 0 914 356"><defs><style>.cls-1{fill:#d8e7bd;}.cls-2{fill:#fef5ab;}.cls-3{fill:#fff;}.cls-4{fill:#dcede3;}.cls-5{fill:#eef6f1;}.cls-6{fill:#e7f2ee;}.cls-7{fill:#cbe4d7;}.cls-8{fill:#daece3;}</style></defs><title>Obszar roboczy 9</title><path class="cls-1" d="M351.16,149.12c0,12.6,11.34,22.81,25.32,22.81s25.34-10.21,25.34-22.81-11.34-22.81-25.34-22.81S351.16,136.52,351.16,149.12Z"/><path class="cls-2" d="M357.83,149.12c0,9.28,8.35,16.81,18.65,16.81s18.67-7.53,18.67-16.81-8.36-16.81-18.67-16.81S357.83,139.84,357.83,149.12Z"/><path class="cls-3" d="M547.78,213.4c5.42-3.25,2.29-5.42-2.89-5.94,3.87-2.52,7.43-9.43,5.18-13.76-3.31-6.36-12.25-4.46-18.75-3.26,4-10.16-5-25.42-15.26-29.79-13.79-5.86-19.88,3-26.44,12-2.85-6.73-13.53-12.51-21.34-9-9.78,4.41-6.91,17.58-3.62,24.85-11.44-5.37-22.09,5.06-12.85,14Z"/><path class="cls-4" d="M464.66,188.48c-3.29-7.27-6.16-20.44,3.62-24.85,7.81-3.51,18.49,2.27,21.34,9,6.56-9,12.65-17.84,26.44-12,10.28,4.37,19.27,19.63,15.26,29.79,6.5-1.2,15.44-3.1,18.75,3.26,2.25,4.33-1.31,11.24-5.18,13.76,5.18.52,8.31,2.69,2.89,5.94l-27.63-3.14c3.54-3.95,4.67-7.81-4.94-6.36,5.91-14.34-8.86-26.75-18.91-10.29-1-5.93-9.12-15.74-16.83-11.62-8.86,4.73-1.64,16.92,2.74,23.94l-30.4-3.46C442.57,193.54,453.22,183.11,464.66,188.48Z"/><path class="cls-5" d="M501,175.31l23.45,4.22C525.32,166,503.6,160.3,501,175.31Zm-31,5.06,14.07-5.91C479.66,163.59,468.87,171.67,470.09,180.37Zm-15,18.59,10.32-2.53C464.36,189.38,453,191.26,455.08,199Zm75-2.53,8.44,5.91C548,198,537.2,193,530.12,196.43Z"/><path class="cls-3" d="M755.18,166c3.85-2.31,1.63-3.86-2-4.23,2.75-1.79,5.28-6.7,3.68-9.78-2.35-4.52-8.71-3.17-13.33-2.31,2.85-7.23-3.54-18.08-10.85-21.18-9.8-4.17-14.13,2.11-18.8,8.51-2-4.78-9.61-8.9-15.17-6.39-7,3.13-4.91,12.49-2.57,17.66-8.14-3.82-15.71,3.6-9.14,10Z"/><path class="cls-4" d="M696.09,148.26c-2.34-5.17-4.39-14.53,2.57-17.66,5.56-2.51,13.14,1.61,15.17,6.39,4.67-6.4,9-12.68,18.8-8.51,7.31,3.1,13.7,14,10.85,21.18,4.62-.86,11-2.21,13.33,2.31,1.6,3.08-.93,8-3.68,9.78,3.68.37,5.9,1.92,2,4.23l-19.64-2.24c2.51-2.8,3.32-5.55-3.52-4.52,4.21-10.2-6.3-19-13.44-7.31-.69-4.22-6.48-11.19-12-8.27-6.3,3.37-1.16,12,2,17L687,158.21C680.38,151.86,688,144.44,696.09,148.26Z"/><path class="cls-5" d="M722,138.89l16.67,3C739.21,132.25,723.77,128.23,722,138.89Zm-22,3.6,10-4.2C706.76,130.57,699.08,136.31,700,142.49Zm-10.67,13.22,7.33-1.8C695.87,148.9,687.81,150.24,689.28,155.71Zm53.35-1.8,6,4.2C755.3,155,747.66,151.49,742.63,153.91Z"/><path class="cls-6" d="M209.31,295.11c-2-3.09-3.25-5.36-9-5.82,9-5.33,5.92-13.81-4.68-12.88,25.1-23.66-13.91-52.6-36.36-29,2.56-11.77-12.63-27.74-24.7-30.52-21.61-5-28.57,19.6-28.88,35-3-9.18-15.72-30.59-29.43-22.39-12.42,7.43-3.76,30.67,1.25,39.6-8.22-7-23-3.11-17.33,8.32Z"/><path class="cls-7" d="M77.52,269.1c-5-8.93-13.67-32.17-1.25-39.6,13.71-8.2,26.45,13.21,29.43,22.39.31-15.44,7.27-40,28.88-35,12.07,2.78,27.26,18.75,24.7,30.52,22.45-23.56,61.46,5.38,36.36,29,10.6-.93,13.68,7.55,4.68,12.88,5.74.46,7,2.73,9,5.82l-45.91-5.45c4.4-4.9,4.67-10.16-8-9.69,18.4-15.69-5.58-36.79-22.65-19.56.07-5.56-7.07-14-14.21-12.43-9.25,2.06-6.36,15.62-4.6,21.68-13.25-14.15-20.9.31-15.9,12.25l-37.87-4.49C54.47,266,69.3,262.08,77.52,269.1Z"/><path class="cls-8" d="M167.66,248c8.28,3.36,14.07,14,12.81,22l13.13-.84C211.46,258,185.83,235.23,167.66,248Zm-52-7.08c7.7-1.89,18.08,3,24.45,7.08l13.13-7.61C146.17,226.14,114.58,218.29,115.68,240.92ZM79.35,237c-5.09,5-.47,16.24.52,21.71,2.54-4.54,9.27-3.08,14.3-3.1l2.81-11C95.38,238.37,85.73,230.74,79.35,237ZM67,274.18l8.44-2.53C72.2,268.49,64.76,269.61,67,274.18Zm117.25,8.45,12.19,4.23C206,280.92,187.17,273.28,184.22,282.63Z"/><path class="cls-1" d="M351.16,149.12c0,12.6,11.34,22.81,25.32,22.81s25.34-10.21,25.34-22.81-11.34-22.81-25.34-22.81S351.16,136.52,351.16,149.12Z"/><path class="cls-2" d="M357.83,149.12c0,9.28,8.35,16.81,18.65,16.81s18.67-7.53,18.67-16.81-8.36-16.81-18.67-16.81S357.83,139.84,357.83,149.12Z"/><path class="cls-3" d="M547.78,213.4c5.42-3.25,2.29-5.42-2.89-5.94,3.87-2.52,7.43-9.43,5.18-13.76-3.31-6.36-12.25-4.46-18.75-3.26,4-10.16-5-25.42-15.26-29.79-13.79-5.86-19.88,3-26.44,12-2.85-6.73-13.53-12.51-21.34-9-9.78,4.41-6.91,17.58-3.62,24.85-11.44-5.37-22.09,5.06-12.85,14Z"/><path class="cls-4" d="M464.66,188.48c-3.29-7.27-6.16-20.44,3.62-24.85,7.81-3.51,18.49,2.27,21.34,9,6.56-9,12.65-17.84,26.44-12,10.28,4.37,19.27,19.63,15.26,29.79,6.5-1.2,15.44-3.1,18.75,3.26,2.25,4.33-1.31,11.24-5.18,13.76,5.18.52,8.31,2.69,2.89,5.94l-27.63-3.14c3.54-3.95,4.67-7.81-4.94-6.36,5.91-14.34-8.86-26.75-18.91-10.29-1-5.93-9.12-15.74-16.83-11.62-8.86,4.73-1.64,16.92,2.74,23.94l-30.4-3.46C442.57,193.54,453.22,183.11,464.66,188.48Z"/><path class="cls-5" d="M501,175.31l23.45,4.22C525.32,166,503.6,160.3,501,175.31Zm-31,5.06,14.07-5.91C479.66,163.59,468.87,171.67,470.09,180.37Zm-15,18.59,10.32-2.53C464.36,189.38,453,191.26,455.08,199Zm75-2.53,8.44,5.91C548,198,537.2,193,530.12,196.43Z"/><path class="cls-3" d="M755.18,166c3.85-2.31,1.63-3.86-2-4.23,2.75-1.79,5.28-6.7,3.68-9.78-2.35-4.52-8.71-3.17-13.33-2.31,2.85-7.23-3.54-18.08-10.85-21.18-9.8-4.17-14.13,2.11-18.8,8.51-2-4.78-9.61-8.9-15.17-6.39-7,3.13-4.91,12.49-2.57,17.66-8.14-3.82-15.71,3.6-9.14,10Z"/><path class="cls-4" d="M696.09,148.26c-2.34-5.17-4.39-14.53,2.57-17.66,5.56-2.51,13.14,1.61,15.17,6.39,4.67-6.4,9-12.68,18.8-8.51,7.31,3.1,13.7,14,10.85,21.18,4.62-.86,11-2.21,13.33,2.31,1.6,3.08-.93,8-3.68,9.78,3.68.37,5.9,1.92,2,4.23l-19.64-2.24c2.51-2.8,3.32-5.55-3.52-4.52,4.21-10.2-6.3-19-13.44-7.31-.69-4.22-6.48-11.19-12-8.27-6.3,3.37-1.16,12,2,17L687,158.21C680.38,151.86,688,144.44,696.09,148.26Z"/><path class="cls-5" d="M722,138.89l16.67,3C739.21,132.25,723.77,128.23,722,138.89Zm-22,3.6,10-4.2C706.76,130.57,699.08,136.31,700,142.49Zm-10.67,13.22,7.33-1.8C695.87,148.9,687.81,150.24,689.28,155.71Zm53.35-1.8,6,4.2C755.3,155,747.66,151.49,742.63,153.91Z"/><path class="cls-6" d="M209.31,295.11c-2-3.09-3.25-5.36-9-5.82,9-5.33,5.92-13.81-4.68-12.88,25.1-23.66-13.91-52.6-36.36-29,2.56-11.77-12.63-27.74-24.7-30.52-21.61-5-28.57,19.6-28.88,35-3-9.18-15.72-30.59-29.43-22.39-12.42,7.43-3.76,30.67,1.25,39.6-8.22-7-23-3.11-17.33,8.32Z"/><path class="cls-7" d="M77.52,269.1c-5-8.93-13.67-32.17-1.25-39.6,13.71-8.2,26.45,13.21,29.43,22.39.31-15.44,7.27-40,28.88-35,12.07,2.78,27.26,18.75,24.7,30.52,22.45-23.56,61.46,5.38,36.36,29,10.6-.93,13.68,7.55,4.68,12.88,5.74.46,7,2.73,9,5.82l-45.91-5.45c4.4-4.9,4.67-10.16-8-9.69,18.4-15.69-5.58-36.79-22.65-19.56.07-5.56-7.07-14-14.21-12.43-9.25,2.06-6.36,15.62-4.6,21.68-13.25-14.15-20.9.31-15.9,12.25l-37.87-4.49C54.47,266,69.3,262.08,77.52,269.1Z"/><path class="cls-8" d="M167.66,248c8.28,3.36,14.07,14,12.81,22l13.13-.84C211.46,258,185.83,235.23,167.66,248Zm-52-7.08c7.7-1.89,18.08,3,24.45,7.08l13.13-7.61C146.17,226.14,114.58,218.29,115.68,240.92ZM79.35,237c-5.09,5-.47,16.24.52,21.71,2.54-4.54,9.27-3.08,14.3-3.1l2.81-11C95.38,238.37,85.73,230.74,79.35,237ZM67,274.18l8.44-2.53C72.2,268.49,64.76,269.61,67,274.18Zm117.25,8.45,12.19,4.23C206,280.92,187.17,273.28,184.22,282.63Z"/><path class="cls-6" d="M847.77,325.37c-3.75-4.24-6.08-7.44-14.89-6.91,12.53-10,6-22.21-9.85-18.55,33.06-41.25-32.32-76.86-61.38-36.32,1.39-18.41-25.07-39.41-44-41.06-33.87-2.95-39.19,35.85-36.37,59.34-6.48-13.29-30.37-43.07-49.43-27.7-17.28,13.92.83,47.35,10.33,59.84-14-8.9-35.65.18-24.53,16.31Z"/><path class="cls-7" d="M642.2,314c-9.5-12.49-27.61-45.92-10.33-59.84,19.06-15.37,43,14.41,49.43,27.7-2.82-23.49,2.5-62.29,36.37-59.34,18.91,1.65,45.37,22.65,44,41.06,29.06-40.54,94.44-4.93,61.38,36.32,15.89-3.66,22.38,8.55,9.85,18.55,8.81-.53,11.14,2.67,14.89,6.91l-70.85,1.52c5.65-8.36,4.93-16.41-14.17-13,24.59-27.73-16.31-54.64-38.55-24.85-1.08-8.46-13.72-19.79-24.22-15.85-13.6,5.12-6.31,25.07-2.36,33.89-23.12-18.64-31.65,4.93-21.51,22l-58.44,1.25C606.55,314.19,628.23,305.11,642.2,314Z"/><path class="cls-8" d="M774.51,262.75c13.29,3.35,24.34,18.21,24.12,30.61l19.75-4.08C843.12,268.58,799.36,239.51,774.51,262.75Zm-80.41.35c11.29-4.52,28.08.69,38.63,5.52L751,254.28C737.23,234.17,687.61,229,694.1,263.1Zm-56,1.78c-6.67,8.66,2.75,24.75,5.41,32.84,2.88-7.43,13.41-6.66,21-7.76l1.93-17.27C662.76,263.55,646.49,254,638.14,264.88ZM627.27,324l12.28-5.65C634,314.22,623,317.5,627.27,324ZM807,311.8l19.41,3.81C839.75,304.55,809.51,297,807,311.8Z"/><path class="cls-3" d="M864.1,94.52c3.85-2.31,1.63-3.85-2.05-4.22,2.75-1.8,5.28-6.71,3.68-9.78C863.38,76,857,77.34,852.4,78.2,855.25,71,848.86,60.13,841.55,57c-9.8-4.16-14.13,2.12-18.8,8.52-2-4.79-9.61-8.9-15.17-6.4-7,3.13-4.91,12.49-2.57,17.66-8.14-3.81-15.71,3.6-9.14,10Z"/><path class="cls-4" d="M805,76.8c-2.34-5.17-4.38-14.53,2.57-17.66,5.56-2.5,13.14,1.61,15.17,6.4,4.67-6.4,9-12.68,18.8-8.52,7.31,3.11,13.7,13.95,10.85,21.18,4.62-.86,11-2.2,13.33,2.32,1.6,3.07-.93,8-3.68,9.78,3.68.37,5.9,1.91,2.05,4.22l-19.64-2.24c2.52-2.8,3.32-5.55-3.52-4.51,4.21-10.2-6.29-19-13.43-7.32-.7-4.22-6.49-11.19-12-8.26-6.3,3.36-1.17,12,2,17l-21.62-2.46C789.3,80.4,796.87,73,805,76.8Z"/><path class="cls-5" d="M830.87,67.44l16.68,3C848.13,60.79,832.69,56.77,830.87,67.44Zm-22,3.6,10-4.21C815.68,59.11,808,64.85,808.87,71ZM798.2,84.25l7.33-1.8C804.79,77.44,796.73,78.78,798.2,84.25Zm53.35-1.8,6,4.21C864.22,83.57,856.58,80,851.55,82.45Z"/></svg>