<svg xmlns="http://www.w3.org/2000/svg" viewBox="0 0 278.99 417.97"><defs><style>.cls-1{isolation:isolate;}.cls-2{fill:#dee1e1;}.cls-3{fill:#cfd4d4;}.cls-4{fill:#cbd1d1;}.cls-5{fill:#97a3a2;}.cls-6{fill:#a7b0b0;}.cls-7{fill:#77bd00;}.cls-8{fill:#fdd1b0;}.cls-9{fill:#996c41;}.cls-10{mix-blend-mode:multiply;}.cls-11{fill:#fdc59c;}.cls-12{fill:#b1bab9;}.cls-13{fill:none;}.cls-14{fill:#fbd32e;}.cls-15{fill:#bfcf00;}</style></defs><title>Obszar roboczy 2</title><g class="cls-1"><g id="objects"><polygon class="cls-2" points="35.41 32.07 26.08 77.07 41.41 163.4 61.41 161.4 59.08 69.07 35.41 32.07"/><polygon class="cls-3" points="35.41 32.07 26.08 77.07 41.41 163.4 51.41 164.07 35.41 32.07"/><path class="cls-4" d="M72.75,207.82s11.16,18.33,22.66,17.08,16.84-18.83,16.84-18.83l13.5,13S120,239.32,101.5,246.32s-29-16-32.25-20-6.75-12.25-6.75-12.25Z"/><path class="cls-5" d="M59.41,170.07c6.55,3.13,7.67,10.16,7.34,16.67-.15,3-.55,5.28.62,8.17a44.57,44.57,0,0,0,4.25,8c1.88,2.83,4.37,5.38,6.11,8.14-1.5.33-12.26,9.77-13,9.73-1.11-.07-3-3.86-3.55-4.73-3.26-5.5-5.17-11.23-7.54-17.13a27.94,27.94,0,0,1-1.58-10.59c0-3.5-.46-7.08-.16-10.59a14.06,14.06,0,0,1,1.44-5.48C54.39,170.56,57.58,169,59.41,170.07Z"/><path class="cls-6" d="M160,293.32l6,46.25,8.25,56.25s13.5,11.5,21,13.75,7.25.25,7.25.25l-8.5-24.5-7.25-44.5-3.25-49.25Z"/><path class="cls-6" d="M127,288.07l.5,48.75.75,4.5-8,36.75L99.5,392.82s-.25,2.75,7.25,2.25,33.5-2.5,33.5-2.5l7-51,3.25-47.25Z"/><path class="cls-4" d="M127.25,254.32l-6.75,33s10,10,35.75,10.25,34-4,34-4l-10.5-32.5s-31.75-1-38.75-1.75S127.25,254.32,127.25,254.32Z"/><path class="cls-6" d="M125.08,255.07a41.3,41.3,0,0,0,.7,8.33c.65,2.92,3.53,5.47,6.09,6.67,5.58,2.62,13.49,2.93,18.79-.08,3.67-2.09,4-3.92,4.67-6.75a97,97,0,0,1-11.4-1.05,83.83,83.83,0,0,1-10.21-1.78C131.21,259.77,125.75,259.33,125.08,255.07Z"/><path class="cls-6" d="M153.58,263.15c.06,8,8.11,10.34,14.67,10.34,5.1,0,12.55-1.52,16.25-5.67,2-2.23,3.4-6.39,2.21-9.23-3.35.77-6.65,1.91-10.19,2.38-4.34.57-8.9,1.46-13.21,1.77C160.79,262.92,156.15,262.75,153.58,263.15Z"/><path class="cls-6" d="M162.41,185.07a48.38,48.38,0,0,1,23.34,1.5c12.66,4,20.33,21.5,20.33,21.5l-35.33,5.67Z"/><path class="cls-6" d="M150.41,186.07s-12.66-6.33-29.33.67-12.5,23-12.5,23a17.65,17.65,0,0,1,10.17,6,19.51,19.51,0,0,1,5,10.5Z"/><path class="cls-7" d="M146.08,62.4c-8.46-15.62-4.35-41,16.81-42.66,8.1-.65,14.23.14,21.17,4,5.16,2.86,9.57,6.83,14.35,10.32,4.51,3.29,15.14,8.69,20,2.72-1.35,5.45-1.8,14.27-6.81,17.84-7.82,5.57-15.93.56-23.71-2-4.69-1.52-9.63-2.65-14.09,0-3.5,2.09-3.87,7.25-6.65,8.41-2.55,1.06-8.2.56-11.12.93A42.3,42.3,0,0,1,146.08,62.4Z"/><path class="cls-8" d="M106.08,109.07s-4,41.67,10.67,49.33,26.33,10.67,29.33,15,0,16,0,16,5.67,5.67,10.33,6,11.34-3.33,11.34-3.33-7-11.33-3-16.67,25.33-6,32-13.66,9-17.67,10.66-24.34,1-26.33,1-26.33-29-15.33-49.33-15.33S106.08,109.07,106.08,109.07Z"/><path class="cls-9" d="M111.39,102.7c0,4.32-3.84,11.76-6.19,15.4,5.51.56,14.44-3.1,19.26-5.83,5-2.83,11.53-6.1,14.66-10.48a28.07,28.07,0,0,1-4.17,9.79c5.05.31,11.71-1.59,16.35-3.3A29.05,29.05,0,0,0,164.37,99c1.08,3.94-.94,7-1.8,10.73-.75,3.27-.73,3.79,3.16,3.45,9.7-.86,18.85-6,27.39-9.69,0,2.34-1.16,6.58-7.35,12.38,7.66,3.06,20.45,1.91,27.2-2.49,7.88-5.14-6.15-11.41-10.94-13-15.76-5.26-30.11-8-46.8-8-9.61,0-17.21,1.53-26.32,4.46C123.38,98.63,115.41,100.45,111.39,102.7Z"/><path class="cls-9" d="M140.65,129.32c.83-5.32-3.56-9.44-8.74-9.08-4.58.32-10.62,5.3-8.83,10.44a1,1,0,0,0,2,0c.7-2,.55-3.85,2.06-5.54a7.94,7.94,0,0,1,4.59-2.47c4.73-.79,6.47,2.64,7.11,6.65a1,1,0,0,0,1.81,0Z"/><path class="cls-9" d="M173.64,131.32c.53-3.45,2.42-6,6.19-5.87,3.52.16,5.53,2.65,6,6,.21,1.42,2.57,1.08,2.5-.34-.44-10.35-16.77-10.65-16.52,0,0,1,1.64,1.31,1.81.25Z"/><path class="cls-9" d="M135.09,152.45c4.54,6.18,15,6.28,21.91,6.25,4.88,0,18.93-.92,19.88-7.41.08-.54-.36-1.28-1-1-2.65,1.07-4.58,3.11-7.43,4a39.58,39.58,0,0,1-10.91,1.78c-7,.24-15.62.09-21.24-4.57-.6-.5-1.74.17-1.19.92Z"/><g class="cls-10"><path class="cls-11" d="M153.9,120.26c-1.79,5.57-.56,11.36-.76,17.09l1.13-.85c-4-.77-11.79,1.23-9.4,7,1.38,3.34,9.57,5.59,11.45,1.83a.67.67,0,0,0-.75-1c-2,.46-4.22,1.13-6.22.24-2.92-1.29-3.14-5.08.22-6.2a9,9,0,0,1,4.22-.18.91.91,0,0,0,1.13-.86c.07-5.61-1.11-11.24,0-16.8a.54.54,0,0,0-1-.29Z"/></g><path class="cls-12" d="M110.41,106.24s0,.3-.06.83c-.24,3.26-.94,15.25,1.06,19.83,2.34,5.34,5.84,5.34,5.84,5.34s-.5,10.66,1.83,15a67.3,67.3,0,0,0,4,6.66,9.76,9.76,0,0,1-7,7.17c-6,1.67-9.5-3.5-11.5-13.67s-6.17-44.16-3.83-57.5,14.5-28.66,30.33-34.16,45.17-6,63.33,5.83,21.67,28.17,22.34,40-2.34,41.67-4,48-3.17,15.5-8.5,15.83-8.5-3.33-9-6,2.16-3.83,4-9.66a39.41,39.41,0,0,0,1.33-12.67s4.17.67,5.83-5.83.84-16.17,0-20.17-27-19.83-52.83-20A69.53,69.53,0,0,0,110.41,106.24Z"/><path class="cls-4" d="M106.25,111.07s21.5-8,51-7.5,53.5,15.75,53.5,15.75l4.5-30.75s-27.75-19-41.5-32-15.5-15.25-15.5-15.25-21.5,22.25-35.5,30.25-19,11-19,11Z"/><path class="cls-5" d="M137.15,70.94c-2.79,8.19.4,24.23,3.45,28.32C143,91.67,141.34,78,137.15,70.94Z"/><path class="cls-5" d="M158.68,97.88c4.51-5.5,2.94-33-.18-39.43C155.19,66.57,152.81,93.45,158.68,97.88Z"/><path class="cls-5" d="M120.33,79.57c-2.13,6.56.61,19.34,3.09,22.57C125.28,96,123.76,85.19,120.33,79.57Z"/><path class="cls-5" d="M180.14,71.94c2.79,8.19-.39,24.23-3.45,28.32C174.25,92.67,176,79,180.14,71.94Z"/><path class="cls-5" d="M196.84,81.82c2.13,6.56-.61,19.34-3.1,22.57C191.88,98.29,193.41,87.44,196.84,81.82Z"/><path class="cls-4" d="M146.75,184.74a64.61,64.61,0,0,0-15.5,22.33c-5.67,13.83-7,36.33-6.84,42.17s.5,10.66.5,10.66,6.34,5,18.34,6.34,25.16.83,32.33-.84,16-4.5,16-4.5-7.12-48.39-10.33-57.7c-3.75-10.88-17-19-17-19s.73,4.08-7.27,5.41S146.75,184.74,146.75,184.74Z"/><path class="cls-6" d="M125.85,282.6c-1.53.58-1.37,3.08-.4,3.8s2.62.84,3.35-.25A2.41,2.41,0,0,0,125.85,282.6Z"/><path class="cls-6" d="M135.6,285.48c-1.53.57-1.37,3.08-.4,3.8s2.62.83,3.35-.26A2.4,2.4,0,0,0,135.6,285.48Z"/><path class="cls-6" d="M145.73,287.73c-1.54.57-1.37,3.08-.4,3.8s2.61.83,3.35-.26A2.4,2.4,0,0,0,145.73,287.73Z"/><path class="cls-6" d="M158,288.1c-1.54.58-1.37,3.08-.4,3.8s2.61.84,3.35-.25A2.41,2.41,0,0,0,158,288.1Z"/><path class="cls-6" d="M170.23,287.6c-1.54.58-1.37,3.08-.4,3.8s2.61.84,3.35-.25A2.41,2.41,0,0,0,170.23,287.6Z"/><path class="cls-6" d="M181.23,285.73c-1.54.57-1.37,3.08-.4,3.8s2.61.83,3.35-.26A2.4,2.4,0,0,0,181.23,285.73Z"/><path class="cls-13" d="M166.13,340.47l-.13-.9,0-.1c-.37,0-.75.06-1.12.11C165.28,339.89,165.7,340.19,166.13,340.47Z"/><path class="cls-13" d="M149.29,339.77c-.6-.28-1.22-.57-1.86-.85l-.1,1.53C148,340.25,148.63,340,149.29,339.77Z"/><path class="cls-13" d="M186.46,336.4l0,.79,1,0C187.19,336.88,186.82,336.64,186.46,336.4Z"/><path class="cls-4" d="M186.46,336.4l-.23-3.42a20.54,20.54,0,0,0-7.85-2,22.79,22.79,0,0,0-13,3.64l.24,1.88C172.47,333,180,332.07,186.46,336.4Z"/><path class="cls-4" d="M179,346.58a14.66,14.66,0,0,0,8.05-3.91l-.3-1.85-.24-3.63c-4.18.14-8.36.37-12.55.4a52,52,0,0,0-8.17.36l.19,1.52c3.46-.27,7.31.34,10.53.38s6.33-.1,9.5-.25c-5.27,6-13.17,5.32-19.88.87l.39,2.65A18.52,18.52,0,0,0,179,346.58Z"/><path class="cls-4" d="M181.5,387.37a16.13,16.13,0,0,1,13.17-.12l-.67-1.93-.17-1c-7.06-2.74-15.43.6-20.33,6.46L174,394A16.93,16.93,0,0,1,181.5,387.37Z"/><path class="cls-4" d="M127.42,329.49l0,1.66a27.24,27.24,0,0,1,8.81-.47c4.73.42,8,2.36,11.42,4.75l.25-3.68C142.36,328.24,133.71,327.35,127.42,329.49Z"/><path class="cls-4" d="M147.33,340.45c-6.53,2-13,.88-19.44-1.27l.36,2.14v.05c5.74,2.34,13.12,3.82,18.76,2l.25-1.79Z"/><path class="cls-4" d="M127.48,334.62v1.48c6.19-2.2,13.91.16,19.94,2.82l.19-2.75C141.74,333.18,133.58,332.36,127.48,334.62Z"/><path class="cls-4" d="M134.34,385.26c-4.67-3.58-8.79-6.62-13.71-8.93l-.38,1.74-.39.28a69.14,69.14,0,0,1,10.87,7.21c3.05,2.4,5.88,4.39,8.05,7.12l1.47-.11.28-2A44.28,44.28,0,0,0,134.34,385.26Z"/><path class="cls-9" d="M46.25,169.07s4.75,38.25,9.5,42.5,9.75,1.75,10.5-7.5S62,167.82,62,167.82Z"/><polygon class="cls-9" points="33.5 159.82 36.75 176.07 71.75 170.57 69.25 153.32 33.5 159.82"/><path class="cls-6" d="M47.75,181.9c3.74,1.16,10-.67,13.33-2.79,3.12-2,1.83-3.3-1.17-3.91a22.63,22.63,0,0,0-7.83-.13c-2.07.28-5.12.34-6.54,2.13C43.43,179.85,46,180.87,47.75,181.9Z"/><path class="cls-6" d="M51.75,179.9c-3,0-8.53,1.15-8.67,4.92-.15,4.2,3.78,3.76,6.66,3.25a60.18,60.18,0,0,0,10.42-2.52c2.58-1,4.81-3.12,1.46-5C58.45,178.72,53.81,179.38,51.75,179.9Z"/><path class="cls-6" d="M54.91,186.49c-2.71-.1-7.32,1.6-9.17,3.65s-.8,4.35,1.68,5c2.83.76,18.94-1,14.66-6.83C60.81,186.6,56.73,185.84,54.91,186.49Z"/><path class="cls-5" d="M63.25,172.82c-3-.54-8.27-1.16-10.72,1.41-3.31,3.46,8.58,4,10.47,4.62,2.08.68,3,2.5,3.27,4.46.66-.64.39-2.07-.15-2.74"/><path class="cls-14" d="M207.46,309.24c-3.7,0-7.22-1.47-10.18-2.92-12.2-5.95-24.3-29.38-26.14-37.68s-2.11-54-2.15-63.12l0-6,5.93-.95c.61-.1,6.54-1,26.62-1.4,2.2,0,4.42-.08,6.61-.08a230.09,230.09,0,0,1,27.81,1.45l5.74.77.34,5.78c.29,5,2.85,49.35,1.73,60.54-1.34,13.37-10.64,24.29-19.57,33.22L223.07,300c-5.37,5.39-9.26,9.29-15.61,9.29Z"/><path class="cls-15" d="M207.18,239.39c0-11.76.15-23.52.55-35.29q-2.91,0-6.06.07c-20.17.44-25.66,1.32-25.66,1.32s.08,18.08.48,34.81A259.28,259.28,0,0,1,207.18,239.39Z"/><path class="cls-7" d="M207.18,239.39a259.28,259.28,0,0,0-30.69.91c.29,12.1.76,23.5,1.5,26.82,1.75,7.89,13.38,28.51,22.37,32.9,3.4,1.66,5.74,2.37,7.78,2.17C207.64,281.26,207.17,260.32,207.18,239.39Z"/><path class="cls-7" d="M235,205.49a226,226,0,0,0-27.28-1.39c-.4,11.77-.55,23.53-.55,35.29,9.84.21,19.69.74,29.49,1.15C236.09,223.86,235,205.49,235,205.49Z"/><path class="cls-15" d="M207.18,239.39c0,20.93.46,41.87,1,62.8,3.35-.33,5.9-3.14,11.08-8.31,8.33-8.34,16.45-18,17.54-29,.43-4.21.26-14-.09-24.38C226.87,240.13,217,239.6,207.18,239.39Z"/></g></g></svg>