<svg id="Layer_1" data-name="Layer 1" xmlns="http://www.w3.org/2000/svg" xmlns:xlink="http://www.w3.org/1999/xlink" viewBox="0 0 664.34 315.13"><defs><style>.cls-1{fill:url(#linear-gradient);}.cls-2{fill:#fff;}.cls-3{fill:#dcede3;}.cls-4{fill:#eef6f1;}.cls-5{fill:#e7f2ee;}.cls-6{fill:#cbe4d7;}.cls-7{fill:#daece3;}</style><linearGradient id="linear-gradient" x1="-37.53" y1="271.97" x2="-37.53" y2="38.08" gradientTransform="matrix(-1, 0, 0, 1, 290.32, 0)" gradientUnits="userSpaceOnUse"><stop offset="0" stop-color="#fef6b8"/><stop offset="1" stop-color="#78c7c8"/></linearGradient></defs><title>Obszar roboczy 5</title><rect class="cls-1" x="-8.65" y="-13.04" width="672.99" height="328.17"/><path class="cls-2" d="M327.3,357.4c8.57-5.14,3.62-8.58-4.57-9.4,6.12-4,11.75-14.92,8.18-21.77-5.22-10.06-19.37-7.06-29.66-5.15,6.35-16.09-7.87-40.23-24.14-47.13-21.82-9.28-31.45,4.7-41.83,18.95-4.52-10.65-21.41-19.81-33.77-14.24-15.48,7-10.93,27.81-5.72,39.31-18.11-8.5-35,8-20.33,22.14Z"/><path class="cls-3" d="M195.79,318c-5.21-11.5-9.76-32.34,5.72-39.31,12.36-5.57,29.25,3.59,33.77,14.24,10.38-14.25,20-28.23,41.83-18.95,16.27,6.9,30.49,31,24.14,47.13,10.29-1.91,24.44-4.91,29.66,5.15,3.57,6.85-2.06,17.78-8.18,21.77,8.19.82,13.14,4.26,4.57,9.4l-43.71-5c5.59-6.23,7.38-12.35-7.83-10.05,9.36-22.69-14-42.32-29.91-16.28-1.55-9.39-14.43-24.91-26.63-18.39-14,7.49-2.59,26.77,4.34,37.89l-48.1-5.48C160.83,326,177.68,309.47,195.79,318Z"/><path class="cls-4" d="M253.35,297.13l37.1,6.68C291.77,282.35,257.39,273.39,253.35,297.13Zm-49,8,22.27-9.35C219.52,278.59,202.45,291.37,204.37,305.14Zm-23.74,29.41,16.32-4C195.3,319.4,177.36,322.38,180.63,334.55Zm118.72-4,13.36,9.36C327.57,333,310.56,325.17,299.35,330.54Z"/><path class="cls-2" d="M686.94,335.83c15.85-6.58,6.71-11-8.47-12,11.34-5.12,21.75-19.12,15.17-27.89-9.68-12.88-35.88-9-54.91-6.6,11.75-20.6-14.57-51.51-44.67-60.36-40.39-11.88-58.21,6-77.44,24.27-8.36-13.65-39.6-25.37-62.48-18.23-28.65,8.93-20.23,35.6-10.6,50.33-33.5-10.87-64.68,10.27-37.63,28.36Z"/><path class="cls-3" d="M443.54,285.32c-9.63-14.73-18.05-41.4,10.6-50.33,22.88-7.14,54.12,4.58,62.48,18.23,19.23-18.25,37-36.15,77.44-24.27,30.1,8.85,56.42,39.76,44.67,60.36,19-2.44,45.23-6.28,54.91,6.6,6.58,8.77-3.83,22.77-15.17,27.89,15.18,1,24.32,5.45,8.47,12L606,329.45c10.36-8,13.67-15.81-14.49-12.87,17.32-29.07-25.93-54.2-55.34-20.85-2.86-12-26.72-31.9-49.3-23.56-25.95,9.59-4.79,34.29,8,48.53l-89-7C378.86,295.59,410,274.45,443.54,285.32Z"/><path class="cls-4" d="M550.07,258.63l68.67,8.56C621.17,239.7,557.56,228.23,550.07,258.63ZM459.44,268.9l41.19-12C487.48,234.9,455.87,251.26,459.44,268.9Zm-43.95,37.66,30.21-5.13C442.65,287.16,409.43,291,415.49,306.56Zm219.73-5.13,24.73,12C687.44,304.61,656,294.55,635.22,301.43Z"/><path class="cls-5" d="M209.71,334c-3.83-4.42-6.21-7.73-15.31-7.27,13-10.21,6.43-22.87-10-19.23,34.49-42.3-32.69-79.63-63-38,1.59-19-25.54-40.9-45-42.77-34.93-3.34-40.77,36.67-38.06,60.94-6.57-13.77-31-44.72-50.79-29-17.95,14.23.45,48.89,10.15,61.86-14.34-9.3-36.8-.11-25.46,16.64Z"/><path class="cls-6" d="M-2.4,320.47c-9.7-13-28.1-47.63-10.15-61.86,19.82-15.69,44.22,15.26,50.79,29-2.71-24.27,3.13-64.28,38.06-60.94,19.51,1.87,46.64,23.78,45.05,42.77,30.35-41.6,97.53-4.27,63,38,16.44-3.64,23,9,10,19.23,9.1-.46,11.48,2.85,15.31,7.27l-73.15.95c5.9-8.59,5.24-16.9-14.52-13.54,25.63-28.42-16.35-56.55-39.57-26-1-8.74-14-20.54-24.87-16.56-14.08,5.16-6.73,25.82-2.73,35-23.7-19.44-32.71,4.81-22.4,22.51l-60.33.79C-39.2,320.36-16.74,311.17-2.4,320.47Z"/><path class="cls-7" d="M134.63,268.72c13.69,3.57,25,19,24.63,31.8l20.42-4C205.4,275.33,160.49,244.94,134.63,268.72Zm-83-.34c11.68-4.57,29,.95,39.82,6l19-14.65C96.4,238.89,45.22,233.1,51.63,268.38Zm-57.8,1.35c-6.95,8.88,2.63,25.57,5.31,33.95,3-7.65,13.9-6.76,21.79-7.83L23.07,278C19.26,268.57,2.55,258.61-6.17,269.73Zm-11.73,60.9,12.72-5.72C-10.87,320.62-22.3,323.92-17.9,330.63Zm185.66-11,20,4.1C201.61,312.43,170.46,304.35,167.76,319.63Z"/><path class="cls-2" d="M447,331.36c7.74-6.32,2.34-9-5.88-8.63,5.48-4.84,9.46-16.47,4.94-22.73-6.63-9.2-20.19-4.18-30.09-.8,4-16.84-13.62-38.66-30.72-43.14-22.93-6-30.44,9.22-38.64,24.82-6-9.88-24.06-16.49-35.47-9.19-14.31,9.14-6.8,29.1,0,39.72-19.15-5.78-33.42,13-16.91,24.85Z"/><path class="cls-3" d="M311.16,311.41c-6.83-10.62-14.34-30.58,0-39.72,11.41-7.3,29.45-.69,35.47,9.19,8.2-15.6,15.71-30.83,38.64-24.82,17.1,4.48,34.67,26.3,30.72,43.14,9.9-3.38,23.46-8.4,30.09.8,4.52,6.26.54,17.89-4.94,22.73,8.22-.39,13.62,2.31,5.88,8.63l-44,1.41c4.63-7,5.52-13.29-9.2-8.81,6-23.81-20-39.84-31.95-11.77-2.89-9.07-17.89-22.56-29-14.34-12.79,9.45,1.32,26.87,9.79,36.86l-48.39,1.55C277.74,324.41,292,305.63,311.16,311.41Z"/><path class="cls-4" d="M365.09,282.44l37.68,1.24C401,262.25,365.65,258.37,365.09,282.44Zm-47.3,15L338.47,285C328.94,269,313.9,284.12,317.79,297.47ZM298.57,330l15.56-6.34C310.89,312.89,293.56,318.44,298.57,330Zm116.88-21.18L430,316.16C443.73,307.2,425.76,301.9,415.45,308.84Z"/></svg>