<svg id="_1" data-name="1" xmlns="http://www.w3.org/2000/svg" viewBox="0 0 1230 378"><defs><style>.cls-1{fill:#d9e7bc;}.cls-2{fill:#fff7a9;}.cls-3{fill:#fff;}.cls-4{fill:#dcede2;}.cls-5{fill:#eef6f0;}.cls-6{fill:#e7f2ee;}.cls-7{fill:#cae4d7;}.cls-8{fill:#d9ebe2;}</style></defs><title>Obszar roboczy 5</title><path class="cls-1" d="M324.51,79.61c0,6.51-5.87,11.79-13.09,11.79s-13.1-5.28-13.1-11.79,5.86-11.79,13.1-11.79S324.51,73.1,324.51,79.61Z"/><path class="cls-2" d="M321.06,79.61c0,4.8-4.32,8.69-9.64,8.69s-9.65-3.89-9.65-8.69,4.32-8.69,9.65-8.69S321.06,74.81,321.06,79.61Z"/><path class="cls-3" d="M538.6,197.43c-1.35-2.16,1.89-3,4.17-2.68-5-2.65,2.13-4.34,4.8-4.33-7.25-8.64,0-17,11-11.07-3.32-12.56,14.29-19.37,17.08-4,2-3.43,7.29-10.72,12.8-8.8,6.32,2.2,2.17,13.13,1.08,17.08,6.62-6.41,10.79,2.56,7.53,7.89Z"/><path class="cls-4" d="M589.52,183.62c1.09-4,5.24-14.88-1.08-17.08-5.51-1.92-10.85,5.37-12.8,8.8-2.79-15.36-20.4-8.55-17.08,4-10.94-6-18.24,2.43-11,11.07-2.67,0-9.8,1.68-4.8,4.33-2.28-.29-5.52.52-4.17,2.68l18-1.82c-2.17-1-1.64-2.5,2.3-2.32-7.77-4.14-.23-8.95,5.15-4.31-1.17-2.63,1.9-8.25,5-8.79,4.54-.81,6.27,4.35,5.34,7.38,1.06-1.7,4.56-4,6.89-3,3.69,1.6.58,6.52-1.1,8.46l-.16.18,17-1.72C600.31,186.18,596.14,177.21,589.52,183.62Z"/><path class="cls-5" d="M560.91,176.88l1.58,4c1.33-2.69,7.37-6.75,10.64-5.42C573.25,166.17,561.93,169.57,560.91,176.88ZM588,169.7c-2.41-1-6.2,2.24-7.24,4.06l-.63,4.54c2.33-.85,6.28-1.5,8.12.54C588.36,176.47,591.69,171.28,588,169.7Zm7,15c-1.76-1.14-4.38-.06-5.43,1.5l6,3.4C595.6,187.68,597.1,186.11,595,184.74Zm-45.74,2.35,2.52.28a8.33,8.33,0,0,1,5.31-4.6C553,176.52,544.36,182,549.26,187.09Z"/><path class="cls-3" d="M193.41,215.15c-2.8-1.68-1.18-2.8,1.5-3.07-2-1.3-3.84-4.87-2.68-7.11,1.71-3.29,6.33-2.31,9.69-1.68-2.08-5.26,2.57-13.14,7.89-15.4,7.12-3,10.27,1.54,13.66,6.19,1.48-3.48,7-6.47,11-4.65,5.06,2.28,3.58,9.08,1.87,12.84,5.92-2.78,11.42,2.62,6.64,7.23Z"/><path class="cls-4" d="M236.37,202.27c1.71-3.76,3.19-10.56-1.87-12.84-4-1.82-9.55,1.17-11,4.65-3.39-4.65-6.54-9.22-13.66-6.19-5.32,2.26-10,10.14-7.89,15.4-3.36-.63-8-1.61-9.69,1.68-1.16,2.24.67,5.81,2.68,7.11-2.68.27-4.3,1.39-1.5,3.07l14.28-1.62c-1.83-2-2.41-4,2.56-3.29-3.06-7.41,4.58-13.82,9.77-5.32.5-3.06,4.71-8.13,8.7-6,4.58,2.45.85,8.75-1.42,12.38L243,209.5C247.79,204.89,242.29,199.49,236.37,202.27Z"/><path class="cls-5" d="M205.45,197.65l12.12-2.19C216.25,187.71,205,190.63,205.45,197.65ZM226.3,195l7.27,3.05C234.2,193.58,228.62,189.41,226.3,195ZM236,206.38l5.33,1.31C242.39,203.71,236.53,202.74,236,206.38Zm-37.81,3.05,4.36-3.05C198.88,204.62,193.32,207.19,198.18,209.43Z"/><path class="cls-3" d="M86.21,190.64c-2-1.19-.84-2,1.06-2.18-1.42-.93-2.73-3.47-1.9-5.06,1.22-2.33,4.5-1.64,6.89-1.2-1.47-3.73,1.83-9.34,5.61-10.94,5.06-2.16,7.3,1.09,9.71,4.4,1-2.48,5-4.6,7.85-3.31,3.59,1.62,2.53,6.46,1.32,9.13,4.21-2,8.12,1.86,4.73,5.14Z"/><path class="cls-4" d="M116.75,181.48c1.21-2.67,2.27-7.51-1.32-9.13-2.88-1.29-6.8.83-7.85,3.31-2.41-3.31-4.65-6.56-9.71-4.4-3.78,1.6-7.08,7.21-5.61,10.94-2.39-.44-5.67-1.13-6.89,1.2-.83,1.59.48,4.13,1.9,5.06-1.9.19-3,1-1.06,2.18l10.15-1.16c-1.3-1.45-1.71-2.86,1.82-2.33-2.17-5.27,3.26-9.83,6.95-3.78.36-2.18,3.35-5.79,6.18-4.27,3.26,1.74.61,6.21-1,8.8l11.17-1.28C124.87,183.34,121,179.51,116.75,181.48Z"/><path class="cls-5" d="M94.77,178.19l8.62-1.55C102.45,171.13,94.46,173.21,94.77,178.19Zm14.82-1.86,5.17,2.17C115.21,175.3,111.24,172.34,109.59,176.33Zm6.89,8.07,3.8.93A2,2,0,1,0,116.48,184.4ZM89.6,186.57l3.1-2.17C90.1,183.15,86.15,185,89.6,186.57Z"/><path class="cls-6" d="M145,128c1.05-1.6,1.68-2.77,4.65-3-4.65-2.75-3.06-7.13,2.42-6.66-13-12.22,7.19-27.18,18.79-15-1.32-6.08,6.53-14.33,12.77-15.77,11.17-2.58,14.77,10.13,14.93,18.11,1.53-4.74,8.12-15.81,15.2-11.57,6.43,3.84,2,15.85-.64,20.47,4.25-3.63,11.91-1.61,9,4.29Z"/><path class="cls-7" d="M213.12,114.53c2.59-4.62,7.07-16.63.64-20.47-7.08-4.24-13.67,6.83-15.2,11.57-.16-8-3.76-20.69-14.93-18.11-6.24,1.44-14.09,9.69-12.77,15.77-11.6-12.17-31.77,2.79-18.79,15-5.48-.47-7.07,3.91-2.42,6.66-3,.24-3.6,1.41-4.65,3l23.73-2.82c-2.27-2.53-2.41-5.25,4.13-5-9.52-8.1,2.88-19,11.7-10.11,0-2.87,3.66-7.25,7.35-6.42,4.78,1.07,3.28,8.07,2.38,11.2,6.84-7.31,10.8.16,8.21,6.34l19.58-2.33C225,112.92,217.37,110.9,213.12,114.53Z"/><path class="cls-8" d="M153.12,114.53l6.79.44c-.65-4.13,2.34-9.61,6.62-11.35C157.14,97,143.89,108.78,153.12,114.53ZM174,99.69l6.79,3.93c3.29-2.11,8.66-4.64,12.64-3.66C194,88.26,177.64,92.32,174,99.69Zm29.09,2.18,1.45,5.68c2.6,0,6.09-.74,7.4,1.6.51-2.83,2.9-8.64.26-11.22C208.88,94.7,203.89,98.64,203.06,101.87Zm11.15,14,4.36,1.31C219.71,114.79,215.87,114.21,214.21,115.84Zm-62.54,7.86,6.3-2.18C156.45,116.69,146.7,120.64,151.67,123.7Z"/><path class="cls-3" d="M1124.7,250c-1.35-2.16,1.88-3,4.17-2.68-5-2.65,2.13-4.34,4.8-4.34-7.25-8.64,0-17,11-11.07-3.32-12.55,14.28-19.36,17.07-4,2-3.44,7.3-10.73,12.81-8.8,6.32,2.2,2.17,13.13,1.08,17.08,6.62-6.41,10.79,2.56,7.53,7.89Z"/><path class="cls-4" d="M1175.62,236.16c1.09-3.95,5.24-14.88-1.08-17.08-5.51-1.93-10.85,5.36-12.81,8.8-2.79-15.36-20.39-8.55-17.07,4-10.94-6-18.24,2.43-11,11.07-2.67,0-9.8,1.69-4.8,4.34-2.29-.29-5.52.52-4.17,2.68l18-1.83c-2.17-.95-1.64-2.49,2.3-2.31-7.78-4.14-.23-9,5.15-4.32-1.17-2.62,1.9-8.24,5-8.79,4.54-.8,6.27,4.36,5.34,7.39,1.06-1.7,4.56-4,6.89-3,3.69,1.6.58,6.52-1.11,8.46l-.15.18,17-1.72C1186.41,238.72,1182.24,229.75,1175.62,236.16Z"/><path class="cls-5" d="M1147,229.41l1.57,4c1.34-2.68,7.38-6.75,10.65-5.41C1159.35,218.71,1148,222.11,1147,229.41Zm27.09-7.17c-2.41-1-6.21,2.24-7.25,4l-.63,4.54c2.34-.84,6.29-1.5,8.13.55C1174.46,229,1177.79,223.82,1174.1,222.24Zm7,15c-1.76-1.15-4.39-.07-5.43,1.5l6,3.4C1181.69,240.22,1183.2,238.65,1181.1,237.28Zm-45.75,2.35,2.52.28a8.37,8.37,0,0,1,5.32-4.6C1139.08,229.05,1130.46,234.56,1135.35,239.63Z"/><path class="cls-3" d="M779.51,267.69c-2.8-1.68-1.18-2.8,1.5-3.07-2-1.3-3.85-4.87-2.68-7.11,1.71-3.29,6.33-2.31,9.69-1.69-2.08-5.25,2.57-13.14,7.88-15.39,7.13-3,10.28,1.53,13.67,6.19,1.48-3.48,7-6.47,11-4.65,5.06,2.27,3.57,9.08,1.87,12.84,5.92-2.78,11.42,2.62,6.64,7.23Z"/><path class="cls-4" d="M822.47,254.81c1.7-3.76,3.19-10.57-1.87-12.84-4-1.82-9.55,1.17-11,4.65-3.39-4.66-6.54-9.22-13.67-6.19-5.31,2.25-10,10.14-7.88,15.39-3.36-.62-8-1.6-9.69,1.69-1.17,2.24.67,5.81,2.68,7.11-2.68.27-4.3,1.39-1.5,3.07l14.28-1.63c-1.83-2-2.41-4,2.56-3.28-3.06-7.41,4.58-13.83,9.77-5.32.5-3.07,4.71-8.14,8.7-6,4.58,2.45.84,8.75-1.42,12.38L829.11,262C833.89,257.43,828.39,252,822.47,254.81Z"/><path class="cls-5" d="M791.55,250.18,803.67,248C802.35,240.24,791.12,243.17,791.55,250.18Zm20.85-2.62,7.27,3.06C820.29,246.12,814.72,241.94,812.4,247.56Zm9.69,11.36,5.33,1.31C828.49,256.25,822.63,255.27,822.09,258.92ZM784.28,262l4.36-3.05C785,257.16,779.42,259.73,784.28,262Z"/><path class="cls-3" d="M672.31,243.18c-2-1.2-.84-2,1.06-2.19-1.42-.92-2.73-3.46-1.9-5.05,1.21-2.34,4.5-1.64,6.89-1.2-1.47-3.73,1.83-9.34,5.61-11,5.06-2.15,7.3,1.1,9.71,4.41,1.05-2.48,5-4.6,7.84-3.31,3.6,1.62,2.54,6.46,1.33,9.13,4.21-2,8.12,1.86,4.73,5.14Z"/><path class="cls-4" d="M702.85,234c1.21-2.67,2.27-7.51-1.33-9.13-2.87-1.29-6.79.83-7.84,3.31-2.41-3.31-4.65-6.56-9.71-4.41-3.78,1.61-7.08,7.22-5.61,11-2.39-.44-5.68-1.14-6.89,1.2-.83,1.59.48,4.13,1.9,5.05-1.9.19-3,1-1.06,2.19L682.46,242c-1.3-1.45-1.71-2.87,1.82-2.33-2.17-5.27,3.26-9.83,7-3.78.36-2.19,3.35-5.79,6.18-4.28,3.26,1.74.6,6.22-1,8.8l11.17-1.27C711,235.88,707.06,232.05,702.85,234Z"/><path class="cls-5" d="M680.87,230.73l8.62-1.55C688.55,223.66,680.56,225.75,680.87,230.73Zm14.82-1.86,5.17,2.17C701.31,227.84,697.34,224.87,695.69,228.87Zm6.89,8.07,3.79.93A2,2,0,1,0,702.58,236.94Zm-26.88,2.17,3.1-2.17C676.2,235.69,672.25,237.51,675.7,239.11Z"/><path class="cls-6" d="M731.1,180.5c1-1.59,1.68-2.77,4.65-3-4.66-2.76-3.06-7.14,2.42-6.66-13-12.23,7.18-27.19,18.79-15-1.32-6.08,6.53-14.34,12.77-15.78,11.17-2.57,14.77,10.14,14.93,18.12,1.53-4.75,8.12-15.81,15.2-11.58,6.43,3.85,1.95,15.86-.64,20.47,4.25-3.62,11.91-1.61,9,4.3Z"/><path class="cls-7" d="M799.22,167.06c2.59-4.61,7.07-16.62.64-20.47-7.08-4.23-13.67,6.83-15.2,11.58-.16-8-3.76-20.69-14.93-18.12-6.24,1.44-14.09,9.7-12.77,15.78-11.61-12.18-31.77,2.78-18.79,15-5.48-.48-7.08,3.9-2.42,6.66-3,.23-3.6,1.41-4.65,3l23.73-2.81c-2.27-2.53-2.42-5.25,4.13-5-9.52-8.11,2.88-19,11.7-10.11,0-2.87,3.66-7.25,7.35-6.43,4.78,1.07,3.28,8.08,2.38,11.21,6.84-7.31,10.8.16,8.21,6.33l19.58-2.32C811.13,165.45,803.47,163.44,799.22,167.06Z"/><path class="cls-8" d="M739.22,167.07l6.79.44c-.66-4.14,2.34-9.61,6.62-11.36C743.24,149.56,730,161.32,739.22,167.07Zm20.85-14.85,6.79,3.93c3.29-2.1,8.66-4.63,12.64-3.65C780.07,140.8,763.74,144.86,760.07,152.22Zm29.09,2.19,1.45,5.67c2.6,0,6.08-.74,7.39,1.61.51-2.83,2.9-8.64.27-11.22C795,147.24,790,151.18,789.16,154.41Zm11.15,14,4.36,1.31C805.81,167.33,802,166.75,800.31,168.38Zm-62.54,7.86,6.3-2.18C742.55,169.23,732.8,173.17,737.77,176.24Z"/></svg>